<svg width="1116" height="242" viewBox="0 0 1116 242" fill="none" xmlns="http://www.w3.org/2000/svg">
<path opacity="0.05" fill-rule="evenodd" clip-rule="evenodd" d="M0 175.704L12 181.641C23 186.589 47 197.473 70 164.82C93 131.177 116 53.9969 140 21.3437C163 -12.2989 186 -1.41452 209 21.3437C233 43.1125 256 76.7552 279 109.408C302 143.051 326 175.704 349 153.935C372 131.177 395 53.9969 419 53.9969C442 53.9969 465 131.177 488 137.114C512 143.051 535 76.7552 558 43.1125C581 10.4594 605 10.4594 628 37.1756C651 64.8813 674 120.293 698 115.345C721 109.408 744 43.1125 767 53.9969C791 64.8813 814 153.935 837 186.589C860 220.231 884 197.473 907 158.883C930 120.293 953 64.8813 977 49.0495C1000 32.2281 1023 53.9969 1046 59.9339C1070 64.8813 1093 53.9969 1104 49.0495L1116 43.1125V242H1104C1093 242 1070 242 1046 242C1023 242 1000 242 977 242C953 242 930 242 907 242C884 242 860 242 837 242C814 242 791 242 767 242C744 242 721 242 698 242C674 242 651 242 628 242C605 242 581 242 558 242C535 242 512 242 488 242C465 242 442 242 419 242C395 242 372 242 349 242C326 242 302 242 279 242C256 242 233 242 209 242C186 242 163 242 140 242C116 242 93 242 70 242C47 242 23 242 12 242H0V175.704Z" fill="#417837"/>
</svg>
