<svg width="109" height="19" viewBox="0 0 109 19" fill="none" xmlns="http://www.w3.org/2000/svg">
<path d="M5.48864 13.3934C7.98153 13.3934 9.99716 11.3778 9.98864 8.89344C9.98011 6.40907 7.98153 4.39344 5.48864 4.39344C3.01278 4.39344 0.997159 6.40907 0.988636 8.89344C0.980114 11.3778 3.01278 13.3934 5.48864 13.3934ZM5.48864 12.4048C3.54972 12.4048 1.96875 10.8238 1.97727 8.89771C1.9858 6.95878 3.55824 5.38208 5.48864 5.38208C7.42756 5.38208 8.99148 6.95026 9 8.89771C9.00852 10.8324 7.43608 12.4048 5.48864 12.4048ZM3 8.89344C3 10.2912 4.13352 11.4247 5.53125 11.4247C6.74148 11.4247 7.67045 10.5724 7.83239 9.4389H6.80114C6.68182 10.0227 6.1875 10.4361 5.53125 10.4361C4.67898 10.4361 3.98864 9.74572 3.98864 8.89344C3.98864 8.04117 4.67898 7.35083 5.53125 7.35083C6.1875 7.35083 6.77131 7.76418 6.88636 8.34799H7.91761C7.75568 7.21447 6.74148 6.36219 5.53125 6.36219C4.13352 6.36219 3 7.49572 3 8.89344Z" fill="#417837"/>
<g clip-path="url(#clip0_4076:44022)">
<path d="M43.5377 6.10623C45.217 4.51289 47.0746 4.22416 48.9008 5.21866C49.4885 5.53947 49.9188 6.05276 50.3701 6.53397C50.538 6.71576 50.6115 6.85478 50.8214 6.56605C52.3957 4.39526 55.2294 3.9889 57.255 5.76403C58.2205 6.60883 58.6928 7.66749 58.7033 8.92933C58.7243 10.6938 58.7033 12.4689 58.7138 14.2333C58.7138 14.6076 58.6403 14.8963 58.21 14.907C57.7692 14.907 57.7167 14.5862 57.7167 14.2333C57.7167 12.5758 57.6748 10.929 57.7272 9.27153C57.7692 8.06315 57.2864 7.11142 56.4468 6.39496C55.9326 5.95652 55.2294 5.73195 54.5052 5.72126C52.5846 5.68918 51.0628 7.13281 51.0838 9.04696C51.1048 10.7579 51.0838 12.4689 51.0838 14.1799C51.0838 14.49 51.0838 14.8215 50.6955 14.9177C50.3071 15.014 50.0238 14.7466 50.0238 14.244C50.0238 12.6079 50.0133 10.9718 50.0343 9.34638C50.0552 8.19148 49.7824 7.12212 48.8588 6.43773C47.1481 5.1545 44.9546 5.71057 43.9995 7.16489C43.6532 7.68888 43.5272 8.28772 43.5272 8.91864C43.5167 10.7045 43.5272 12.4903 43.5167 14.2761C43.5167 14.7894 43.2019 15.0354 42.7716 14.907C42.3728 14.7894 42.4147 14.4686 42.4147 14.1585C42.4147 11.5065 42.4147 8.85448 42.4147 6.20247C42.4147 5.89236 42.4042 5.58224 42.4252 5.28282C42.4357 4.92994 42.5932 4.69468 42.971 4.69468C43.3488 4.69468 43.5062 4.91924 43.5167 5.28282C43.5482 5.50739 43.5377 5.76403 43.5377 6.10623Z" fill="#427938"/>
<path d="M100.033 7.59239C100.033 5.44299 100.033 3.29358 100.033 1.13347C100.033 0.876828 99.9805 0.577408 100.253 0.40631C100.652 0.160358 101.051 0.427698 101.051 0.962376C101.061 2.53433 101.051 4.11698 101.061 5.68894C101.061 7.16465 101.072 8.65106 101.082 10.1268C101.082 10.2551 101.02 10.4262 101.166 10.4904C101.313 10.5545 101.418 10.4155 101.492 10.3193C102.111 9.51724 102.919 8.9077 103.622 8.20193C104.325 7.49615 105.018 6.7583 105.795 6.13807C106.225 5.79587 106.529 5.31466 106.949 4.96177C107.138 4.80137 107.327 4.65166 107.558 4.55542C107.799 4.45918 108.02 4.54472 108.167 4.72652C108.324 4.919 108.209 5.12218 108.072 5.29327C107.317 6.15945 106.466 6.95078 105.606 7.69933C105.092 8.14846 104.766 8.79008 104.158 9.14296C104.011 9.22851 104.137 9.38892 104.221 9.48516C105.312 10.7791 106.393 12.0944 107.506 13.3562C107.736 13.6129 107.883 13.923 108.114 14.1689C108.251 14.308 108.303 14.5218 108.167 14.7036C108.03 14.8854 107.831 14.9389 107.61 14.8854C107.38 14.8213 107.212 14.6822 107.065 14.5004C105.868 13.0996 104.672 11.6987 103.486 10.2872C103.339 10.1161 103.244 10.1161 103.066 10.2337C102.331 10.7149 101.88 11.5169 101.166 12.0195C101.04 12.1158 101.072 12.2976 101.072 12.458C101.072 13.0354 101.051 13.6129 101.061 14.1903C101.061 14.5753 101.009 14.9175 100.547 14.9068C100.106 14.8961 100.022 14.5539 100.022 14.1689C100.033 13.3242 100.022 12.4794 100.022 11.6346C100.033 10.2765 100.033 8.93979 100.033 7.59239Z" fill="#6C903D"/>
<path d="M94.3134 4.66322C95.5099 4.55628 96.4859 5.17651 97.462 5.80743C97.6824 5.94645 97.8398 6.17101 97.6614 6.43835C97.483 6.71638 97.2101 6.81263 96.9267 6.63084C96.486 6.34211 96.0137 6.10685 95.5204 5.90367C94.4184 5.46524 93.3689 5.59356 92.3613 6.16032C91.91 6.41696 91.6372 6.86609 91.6477 7.39008C91.6582 7.93545 92.036 8.30973 92.4663 8.55568C92.9596 8.83371 93.4843 8.99411 94.0721 9.04758C95.3315 9.15452 96.5384 9.46463 97.483 10.395C98.48 11.3681 98.3226 12.7796 97.5984 13.603C96.6224 14.7152 95.3525 14.9718 93.9566 14.9077C92.6657 14.8435 91.5427 14.4051 90.5562 13.5496C90.3253 13.3464 90.1573 13.1753 90.3672 12.8866C90.5771 12.5872 90.85 12.6192 91.1124 12.8117C92.015 13.4533 93.012 13.8383 94.1035 13.9345C95.0586 14.0094 95.9402 13.7528 96.6644 13.0791C97.0317 12.7369 97.2836 12.3305 97.1157 11.8065C96.9267 11.2184 96.5594 10.7372 95.9612 10.5554C95.0376 10.2773 94.1035 10.0635 93.1695 9.8496C92.4558 9.6892 91.8366 9.31492 91.2383 8.91926C90.5142 8.44874 90.3882 6.78055 90.9655 6.09616C91.8366 5.05888 92.9491 4.59906 94.3134 4.66322Z" fill="#6C903D"/>
<path d="M39.3917 8.23479C39.3917 9.03681 39.3707 9.84952 39.3917 10.6515C39.4442 12.4694 38.1848 14.2446 36.516 14.7044C34.9942 15.1215 33.4304 15.1215 32.0766 13.8382C31.09 12.9079 30.7437 11.8385 30.7332 10.5767C30.7227 8.90848 30.7332 7.22959 30.7332 5.56139C30.7332 5.44376 30.7332 5.32613 30.7332 5.2192C30.7437 4.89839 30.8591 4.65243 31.2265 4.65243C31.5833 4.65243 31.7302 4.88769 31.7407 5.2085C31.7512 6.07468 31.7512 6.94086 31.7512 7.80704C31.7512 8.82293 31.7512 9.83883 31.7512 10.8654C31.7512 11.7637 32.1395 12.5229 32.7378 13.1111C33.6508 14.0093 35.2986 14.159 36.4531 13.603C37.681 13.0148 38.2372 12.031 38.2372 10.6729C38.2267 8.91918 38.2372 7.17612 38.2372 5.42237C38.2372 5.13365 38.2372 4.82353 38.5521 4.68452C39.0034 4.49203 39.3602 4.74868 39.3707 5.28336C39.4022 6.27786 39.3917 7.25098 39.3917 8.23479Z" fill="#427938"/>
<path d="M27.3851 7.5391C27.3851 5.3683 27.3851 3.19751 27.3851 1.03741C27.3851 0.673828 27.4376 0.385101 27.8679 0.342327C28.1723 0.310246 28.3927 0.417182 28.4241 0.759376C28.4451 0.930473 28.4451 1.10157 28.4451 1.27267C28.4451 5.49663 28.4451 9.72059 28.4451 13.9339C28.4451 14.3295 28.5711 14.8856 27.9414 14.8963C27.2907 14.9177 27.3746 14.3616 27.3746 13.9339C27.3851 11.7951 27.3851 9.66712 27.3851 7.5391Z" fill="#427938"/>
<path d="M23.7646 7.59295C23.7646 5.42216 23.7646 3.25136 23.7646 1.08056C23.7646 0.684901 23.7751 0.267851 24.3419 0.332013C24.6148 0.364094 24.8037 0.492416 24.8142 0.80253C24.8142 0.941547 24.8352 1.06987 24.8352 1.20889C24.8352 5.49701 24.8352 9.77444 24.8352 14.0626C24.8352 14.2337 24.8247 14.4048 24.7932 14.5759C24.7407 14.8753 24.4783 14.886 24.2684 14.9181C24.0375 14.9501 23.8591 14.8218 23.8171 14.5759C23.7751 14.3727 23.7751 14.1588 23.7751 13.9449C23.7646 11.8276 23.7646 9.71028 23.7646 7.59295Z" fill="#427938"/>
<path d="M20.8049 9.84924C20.8049 11.2929 20.7944 12.7258 20.8154 14.1695C20.8259 14.64 20.6684 14.918 20.1856 14.9073C19.7448 14.8966 19.6504 14.5972 19.6504 14.2015C19.6609 11.2608 19.6609 8.33076 19.6504 5.39002C19.6504 4.97297 19.7448 4.65216 20.2276 4.66286C20.7104 4.67355 20.7944 5.00505 20.7944 5.41141C20.8049 6.88712 20.8049 8.36284 20.8049 9.84924Z" fill="#427938"/>
<path d="M61.4111 9.79573C61.4111 8.34141 61.4111 6.87639 61.4111 5.42206C61.4111 5.0264 61.4426 4.65213 61.9569 4.66282C62.4291 4.67351 62.4396 5.05848 62.4396 5.42206C62.4396 8.3521 62.4396 11.2928 62.4501 14.2229C62.4501 14.5865 62.3872 14.8966 61.9569 14.9073C61.5056 14.918 61.4111 14.6292 61.4111 14.2229C61.4216 12.7472 61.4111 11.2714 61.4111 9.79573Z" fill="#427938"/>
<path d="M75.2749 3.09078C74.1729 1.71131 72.798 0.834434 71.1607 0.470852C69.6494 0.139352 68.0856 0.278368 66.5428 0.321142C66.06 0.331836 65.9971 0.67403 65.9971 1.09108C66.0076 3.26187 65.9971 5.43267 65.9971 7.60346C65.9971 9.77426 65.9971 11.9451 65.9971 14.1158C65.9971 14.8002 66.1125 14.9179 66.7947 14.9179C67.6973 14.9286 68.5999 14.9393 69.513 14.9179C70.7304 14.8965 71.9059 14.7254 72.9869 14.0945C74.7081 13.0893 76.041 11.774 76.5868 9.76356C77.2585 7.30404 76.9016 5.10117 75.2749 3.09078ZM75.7891 8.61935C75.5267 9.96674 74.96 11.1323 73.9105 12.1161C72.5461 13.3994 70.9928 13.8485 69.2401 13.902C68.6943 13.9234 68.1486 13.8913 67.6028 13.9127C67.183 13.9341 67.0466 13.7523 67.0571 13.3352C67.0676 11.4211 67.0676 9.49623 67.0676 7.57138C67.0676 5.68931 67.0781 3.80725 67.0571 1.92518C67.0571 1.45466 67.1935 1.29426 67.6658 1.29426C69.1247 1.27287 70.5625 1.30495 71.9584 1.78616C72.1893 1.86102 72.3992 2.00003 72.6091 2.11766C75.023 3.50783 76.2719 6.13844 75.7891 8.61935Z" fill="#6C903D"/>
<path d="M89.1496 9.16484C88.7823 7.09029 87.5963 5.63596 85.6757 4.91949C82.6741 3.80736 79.2211 5.92469 78.9063 9.34663C78.7699 10.7903 79.1372 12.159 80.1447 13.2284C81.0473 14.1801 82.1178 14.8324 83.4927 14.9073C85.4238 15.0249 86.9981 14.4368 88.1631 12.8327C88.352 12.5761 88.5199 12.2446 88.205 12.02C87.8902 11.7848 87.5753 11.8917 87.3339 12.2446C86.8512 12.9611 86.19 13.3995 85.3818 13.6989C83.2513 14.4688 80.575 13.3567 79.9768 10.6512C79.8718 10.1914 79.9873 10.031 80.4596 10.0417C81.782 10.0631 83.0939 10.0524 84.4163 10.0524C85.7492 10.0524 87.0925 10.0631 88.4254 10.0524C89.0551 10.031 89.2546 9.79576 89.1496 9.16484ZM87.3234 9.03652C86.19 9.03652 85.067 9.03652 83.9335 9.03652C82.7895 9.03652 81.635 9.02582 80.4911 9.04721C80.0818 9.0579 79.9453 8.95097 80.0922 8.52323C80.8584 6.34174 82.863 5.43278 84.9095 5.80706C86.127 6.03162 86.9351 6.82295 87.6173 7.79606C87.7223 7.94577 87.8062 8.13826 87.8587 8.32005C88.0266 8.87611 87.9112 9.03652 87.3234 9.03652Z" fill="#6C903D"/>
<path d="M61.9355 0.749031C61.2533 0.770418 60.781 1.2944 60.7705 2.03226C60.7705 2.87705 61.1378 3.27271 61.9565 3.27271C62.7016 3.27271 63.2264 2.78081 63.2369 2.06434C63.2579 1.40134 62.5967 0.727644 61.9355 0.749031ZM61.9879 2.54555C61.7046 2.48139 61.5157 2.33168 61.5262 2.03226C61.5262 1.72215 61.7466 1.58313 62.0089 1.59382C62.2503 1.60452 62.4497 1.76492 62.4287 2.04295C62.3973 2.2996 62.2713 2.52416 61.9879 2.54555Z" fill="#427938"/>
<path d="M20.2381 0.748667C19.6503 0.737973 19.0206 1.37959 18.9996 2.01051C18.9786 2.71629 19.5034 3.27235 20.2066 3.27235C20.9307 3.27235 21.4555 2.78045 21.4765 2.06398C21.4975 1.42236 20.8678 0.748667 20.2381 0.748667ZM20.2381 2.55588C19.9442 2.5238 19.7343 2.3527 19.7133 2.05328C19.6923 1.7004 19.9862 1.60415 20.2486 1.60415C20.5004 1.60415 20.7418 1.72178 20.7418 2.0319C20.7418 2.34201 20.5319 2.50241 20.2381 2.55588Z" fill="#427938"/>
</g>
<defs>
<clipPath id="clip0_4076:44022">
<rect width="89.2721" height="14.7037" fill="white" transform="translate(19 0.25708)"/>
</clipPath>
</defs>
</svg>
