<svg width="14" height="15" viewBox="0 0 14 15" fill="none" xmlns="http://www.w3.org/2000/svg">
<path d="M11.3748 5.5071C11.9079 5.50712 12.4283 5.34487 12.8668 5.04195C13.3054 4.73902 13.6414 4.30976 13.83 3.81126C14.0187 3.31276 14.0512 2.76863 13.9231 2.25124C13.795 1.73385 13.5124 1.26772 13.1129 0.914821C12.7135 0.561926 12.216 0.338994 11.6868 0.275672C11.1575 0.21235 10.6215 0.311639 10.1501 0.560335C9.67865 0.80903 9.29408 1.19535 9.04754 1.66791C8.80099 2.14048 8.70415 2.6769 8.76989 3.20584L4.44726 5.3671C4.07646 5.00953 3.60864 4.76896 3.10208 4.67536C2.59553 4.58176 2.07263 4.63926 1.59852 4.8407C1.12441 5.04214 0.720048 5.37862 0.435805 5.80822C0.151562 6.23782 0 6.74155 0 7.25667C0 7.77178 0.151562 8.27552 0.435805 8.70512C0.720048 9.13472 1.12441 9.47119 1.59852 9.67264C2.07263 9.87408 2.59553 9.93158 3.10208 9.83797C3.60864 9.74437 4.07646 9.5038 4.44726 9.14624L8.76989 11.3075C8.69332 11.922 8.83644 12.5437 9.17396 13.0628C9.51147 13.582 10.0216 13.9651 10.6143 14.1445C11.207 14.3239 11.844 14.288 12.4128 14.0432C12.9815 13.7983 13.4454 13.3603 13.7225 12.8065C13.9995 12.2528 14.0719 11.6189 13.9268 11.0169C13.7817 10.4149 13.4284 9.88364 12.9295 9.51692C12.4305 9.1502 11.818 8.97167 11.2001 9.01288C10.5823 9.05409 9.99887 9.31238 9.55304 9.74211L5.23041 7.58086C5.25689 7.36583 5.25689 7.14838 5.23041 6.93335L9.55304 4.7721C10.0238 5.2271 10.6661 5.5071 11.3748 5.5071Z" fill="#3F3F46"/>
</svg>
