<svg width="14" height="15" viewBox="0 0 14 15" fill="none" xmlns="http://www.w3.org/2000/svg">
<path fill-rule="evenodd" clip-rule="evenodd" d="M5.13291 0.25708C4.76161 0.257164 4.40554 0.404745 4.14305 0.667356C3.88056 0.929966 3.73314 1.2861 3.73323 1.6574C3.73331 2.0287 3.88089 2.38476 4.1435 2.64725C4.40611 2.90975 4.76224 3.05716 5.13355 3.05708H6.53355V1.65708C6.53321 1.28588 6.3856 0.929981 6.12312 0.667503C5.86065 0.405025 5.50475 0.257417 5.13355 0.25708H5.13291ZM5.13291 3.99063H1.4C1.0287 3.99063 0.672601 4.13813 0.410051 4.40068C0.1475 4.66323 0 5.01932 0 5.39063C0 5.76193 0.1475 6.11802 0.410051 6.38058C0.672601 6.64313 1.0287 6.79063 1.4 6.79063H5.13291C5.50421 6.79063 5.86031 6.64313 6.12286 6.38058C6.38541 6.11802 6.53291 5.76193 6.53291 5.39063C6.53291 5.01932 6.38541 4.66323 6.12286 4.40068C5.86031 4.13813 5.50421 3.99063 5.13291 3.99063Z" fill="black"/>
<path fill-rule="evenodd" clip-rule="evenodd" d="M14.0003 5.38999C14.0003 5.01869 13.8528 4.66259 13.5903 4.40004C13.3277 4.13749 12.9716 3.98999 12.6003 3.98999C12.229 3.98999 11.8729 4.13749 11.6104 4.40004C11.3478 4.66259 11.2003 5.01869 11.2003 5.38999V6.78999H12.6003C12.9716 6.78999 13.3277 6.64249 13.5903 6.37994C13.8528 6.11739 14.0003 5.76129 14.0003 5.38999ZM10.2668 5.38999V1.65708C10.2668 1.28578 10.1193 0.929682 9.85675 0.667131C9.5942 0.40458 9.2381 0.25708 8.8668 0.25708C8.49549 0.25708 8.1394 0.40458 7.87685 0.667131C7.6143 0.929682 7.4668 1.28578 7.4668 1.65708V5.38999C7.4668 5.76129 7.6143 6.11739 7.87685 6.37994C8.1394 6.64249 8.49549 6.78999 8.8668 6.78999C9.2381 6.78999 9.5942 6.64249 9.85675 6.37994C10.1193 6.11739 10.2668 5.76129 10.2668 5.38999Z" fill="black"/>
<path fill-rule="evenodd" clip-rule="evenodd" d="M8.8668 14.2571C9.2381 14.2571 9.5942 14.1096 9.85675 13.847C10.1193 13.5845 10.2668 13.2284 10.2668 12.8571C10.2668 12.4858 10.1193 12.1297 9.85675 11.8671C9.5942 11.6046 9.2381 11.4571 8.8668 11.4571H7.4668V12.8571C7.46616 13.629 8.09298 14.2558 8.8668 14.2571ZM8.8668 10.5229H12.6003C12.9716 10.5229 13.3277 10.3754 13.5903 10.1128C13.8528 9.8503 14.0003 9.4942 14.0003 9.1229C14.0003 8.7516 13.8528 8.3955 13.5903 8.13295C13.3277 7.8704 12.9716 7.7229 12.6003 7.7229H8.86743C8.49613 7.72282 8.14 7.87023 7.87739 8.13273C7.61478 8.39522 7.4672 8.75128 7.46712 9.12258C7.46703 9.49389 7.61445 9.85001 7.87694 10.1126C8.13943 10.3752 8.49549 10.5228 8.8668 10.5229Z" fill="black"/>
<path fill-rule="evenodd" clip-rule="evenodd" d="M0 9.12388C0 9.49518 0.1475 9.85128 0.410051 10.1138C0.672601 10.3764 1.0287 10.5239 1.4 10.5239C1.7713 10.5239 2.1274 10.3764 2.38995 10.1138C2.6525 9.85128 2.8 9.49518 2.8 9.12388V7.72388H1.4C1.0287 7.72388 0.672601 7.87138 0.410051 8.13393C0.1475 8.39648 0 8.75257 0 9.12388ZM3.73355 9.12388V12.8568C3.73346 13.2281 3.88088 13.5842 4.14337 13.8468C4.40586 14.1094 4.76192 14.257 5.13323 14.2571C5.50453 14.2572 5.86066 14.1098 6.12327 13.8473C6.38588 13.5848 6.53346 13.2287 6.53355 12.8574V9.12451C6.53363 8.75321 6.38621 8.39708 6.12372 8.13447C5.86123 7.87186 5.50517 7.72428 5.13386 7.72419C4.76256 7.72411 4.40643 7.87153 4.14382 8.13402C3.88121 8.39651 3.73363 8.75257 3.73355 9.12388Z" fill="black"/>
</svg>
