<svg width="1440" height="620" viewBox="0 0 1440 620" fill="none" xmlns="http://www.w3.org/2000/svg">
<g clip-path="url(#clip0_4483:47192)">
<path d="M1470 -83H-29.9912V608.725H1470V-83Z" fill="#F7F7F7"/>
<path d="M1470 321.575V608.725H-29.9961V443.574H-19.5407V339.087H42.2653V392.333H102.248L125.986 417.163H150.073V288.397H205.51V321.575H252.542V385.626H315.718V305.262H365.578V339.07H391.505L413.946 315.576H439.468V237.664H510.876V353.297H583.853V381.166H612.142V339.087H719.972V385.626H761.216V321.575H824.125V417.163H827.801V288.397H883.216V321.575H930.248V385.626H993.411V305.262H1043.27V339.07H1069.22L1091.66 315.576H1117.2V237.664H1188.57V353.297H1261.56V381.166H1289.85V339.087H1346.62V385.626H1438.9V321.575H1470Z" fill="url(#paint0_linear_4483:47192)"/>
<path d="M1470 321.575V608.725H-29.9961V443.574H-19.5407V339.087H42.2653V392.333H102.248L125.986 417.163H150.073V288.397H205.51V321.575H252.542V385.626H315.718V305.262H365.578V339.07H391.505L413.946 315.576H439.468V237.664H510.876V353.297H583.853V381.166H612.142V339.087H719.972V385.626H761.211V321.575H824.121V417.163H827.801V288.397H883.216V321.575H930.248V385.626H993.407V305.262H1043.27V339.07H1069.21L1091.65 315.576H1117.19V237.664H1188.57V353.297H1261.56V381.166H1289.85V339.087H1346.62V385.626H1438.9V321.575H1470Z" fill="url(#paint1_linear_4483:47192)"/>
<path d="M1470 511.353H-30V779H1470V511.353Z" fill="url(#paint2_linear_4483:47192)"/>
<path d="M1470 602.85H-30V779H1470V602.85Z" fill="#A5B554"/>
<path d="M1470 562.315H-30V576.469H1470V562.315Z" fill="#BACC5F"/>
<path d="M832.051 622.107L791.794 511.353H758.454H725.114L684.856 622.107H-30V664.151H1470V622.107H832.051Z" fill="url(#paint3_linear_4483:47192)"/>
<path d="M758.453 152.274H230.023V488.437H758.453V152.274Z" fill="url(#paint4_linear_4483:47192)"/>
<path d="M1286.88 152.274H758.454V488.437H1286.88V152.274Z" fill="url(#paint5_linear_4483:47192)"/>
<path d="M1292.89 306.719H758.445V327.01H1292.89V306.719Z" fill="url(#paint6_linear_4483:47192)"/>
<path d="M757.199 306.719H222.753V327.01H757.199V306.719Z" fill="url(#paint7_linear_4483:47192)"/>
<path d="M1298.14 153.313H757.437V36.8311H1209.86L1298.14 153.313Z" fill="url(#paint8_linear_4483:47192)"/>
<path d="M217 153.313H757.704V36.8311H305.281L217 153.313Z" fill="url(#paint9_linear_4483:47192)"/>
<path d="M1294.65 467.4H222.267V511.353H1294.65V467.4Z" fill="#CBBD9F"/>
<path d="M1008.87 152.274H508.041V461.12H1008.87V152.274Z" fill="#E5D4B4"/>
<path d="M487.35 164.135L758.454 -41.2749L1029.55 164.135H487.35Z" fill="#E5D4B4"/>
<path d="M533.218 461.12V436.23H537.665V434.39C548.25 403.616 550.379 343.324 550.379 302.465C550.379 302.465 552.064 253.141 546.565 232.38V225.238C546.565 225.238 544.557 216.993 547.061 211.619H537.665V199.18H533.218V175.436H537.665V164.135H589.589V175.436H594.05V199.18H589.602V211.619H580.207C581.177 213.679 581.457 216.149 581.457 218.467C581.444 220.745 581.191 223.014 580.702 225.238V232.38C580.702 232.38 576.888 245.228 576.888 302.465C576.888 343.324 579.017 403.616 589.602 434.39V436.23H594.05V461.12H533.218Z" fill="#FDEED3"/>
<path d="M632.476 461.12V436.23H636.923V434.39C647.491 403.599 649.646 343.324 649.646 302.465C649.646 302.465 651.331 253.141 645.831 232.38V225.238C645.831 225.238 643.823 216.993 646.327 211.619H636.932V199.18H632.484V175.436H636.932V164.135H688.864V175.436H693.312V199.18H688.864V211.619H679.469C680.439 213.679 680.719 216.149 680.719 218.467C680.706 220.745 680.453 223.014 679.965 225.238V232.38C679.965 232.38 676.15 245.228 676.15 302.465C676.15 343.324 678.279 403.616 688.864 434.39V436.23H693.312V461.12H632.476Z" fill="#FDEED3"/>
<path d="M983.689 461.12V436.23H979.237V434.39C968.657 403.616 966.528 343.324 966.528 302.465C966.528 302.465 964.842 253.141 970.342 232.38V225.238C970.342 225.238 972.35 216.993 969.842 211.619H979.237V199.18H983.689V175.436H979.237V164.135H927.318V175.436H922.883V199.18H927.33V211.619H936.726C935.752 213.679 935.472 216.149 935.472 218.467C935.484 220.745 935.739 223.015 936.23 225.238V232.38C936.23 232.38 940.044 245.228 940.044 302.465C940.044 343.324 937.915 403.616 927.33 434.39V436.23H922.883V461.12H983.689Z" fill="#FDEED3"/>
<path d="M884.431 461.12V436.23H879.979V434.39C869.399 403.599 867.287 343.324 867.287 302.465C867.287 302.465 865.602 253.141 871.101 232.38V225.238C871.101 225.238 873.11 216.993 870.601 211.619H879.997V199.18H884.449V175.436H879.997V164.135H828.069V175.436H823.621V199.18H828.069V211.619H837.464C836.49 213.679 836.21 216.149 836.21 218.467C836.223 220.745 836.477 223.015 836.968 225.238V232.38C836.968 232.38 840.778 245.228 840.778 302.465C840.778 343.324 838.653 403.616 828.069 434.39V436.23H823.621V461.12H884.431Z" fill="#FDEED3"/>
<path d="M1000.71 163.532H516.194L758.453 -20.0225L1000.71 163.532ZM554.012 150.839H962.894L758.453 -4.06253L554.012 150.839Z" fill="#FDEED3"/>
<path d="M791.794 328.187H725.113V461.12H791.794V328.187Z" fill="url(#paint10_linear_4483:47192)"/>
<path d="M803.9 472.257H712.999V317.05H803.896L803.9 472.257ZM714.688 470.563H802.176V318.744H714.723L714.688 470.563Z" fill="#FDEED3"/>
<path d="M1004.3 162.334H512.604V172.609H1004.3V162.334Z" fill="#FDEED3"/>
<path d="M785.445 290.022H731.457V237.979C731.457 230.818 734.301 223.951 739.364 218.888C744.427 213.825 751.293 210.981 758.453 210.981C761.998 210.981 765.509 211.679 768.784 213.036C772.059 214.393 775.035 216.381 777.541 218.888C780.048 221.395 782.036 224.372 783.392 227.647C784.748 230.923 785.446 234.433 785.445 237.979V290.022Z" fill="url(#paint11_linear_4483:47192)"/>
<path d="M785.445 239.349H731.457V242.302H785.445V239.349Z" fill="#E5D4B4"/>
<path d="M1112.73 290.022H1058.74V237.979C1058.74 234.433 1059.44 230.923 1060.8 227.647C1062.15 224.372 1064.14 221.395 1066.65 218.888C1069.15 216.381 1072.13 214.393 1075.4 213.036C1078.68 211.679 1082.19 210.981 1085.74 210.981C1092.9 210.981 1099.76 213.825 1104.82 218.888C1109.89 223.951 1112.73 230.818 1112.73 237.979V290.022Z" fill="url(#paint12_linear_4483:47192)"/>
<path d="M1112.73 239.349H1058.74V242.302H1112.73V239.349Z" fill="#E5D4B4"/>
<path d="M1228.82 290.022H1174.83V237.979C1174.83 234.433 1175.53 230.922 1176.89 227.646C1178.25 224.37 1180.23 221.394 1182.74 218.887C1185.25 216.38 1188.22 214.391 1191.5 213.035C1194.78 211.678 1198.29 210.98 1201.83 210.981C1205.38 210.981 1208.89 211.679 1212.16 213.036C1215.44 214.393 1218.41 216.381 1220.92 218.888C1223.43 221.395 1225.41 224.372 1226.77 227.647C1228.13 230.923 1228.82 234.433 1228.82 237.979V290.022Z" fill="url(#paint13_linear_4483:47192)"/>
<path d="M1228.82 239.349H1174.83V242.302H1228.82V239.349Z" fill="#E5D4B4"/>
<path d="M1112.73 418.253H1058.74V366.188C1058.74 362.643 1059.44 359.132 1060.8 355.857C1062.15 352.581 1064.14 349.605 1066.65 347.098C1069.15 344.591 1072.13 342.602 1075.4 341.246C1078.68 339.889 1082.19 339.19 1085.74 339.19C1092.9 339.19 1099.76 342.035 1104.82 347.098C1109.89 352.161 1112.73 359.028 1112.73 366.188V418.253Z" fill="url(#paint14_linear_4483:47192)"/>
<path d="M1112.73 367.559H1058.74V370.511H1112.73V367.559Z" fill="#E5D4B4"/>
<path d="M1228.82 418.253H1174.83V366.188C1174.83 362.643 1175.53 359.132 1176.89 355.856C1178.25 352.58 1180.23 349.604 1182.74 347.097C1185.25 344.59 1188.22 342.601 1191.5 341.244C1194.78 339.888 1198.29 339.19 1201.83 339.19C1205.38 339.19 1208.89 339.889 1212.16 341.246C1215.44 342.602 1218.41 344.591 1220.92 347.098C1223.43 349.605 1225.41 352.581 1226.77 355.857C1228.13 359.132 1228.82 362.643 1228.82 366.188V418.253Z" fill="url(#paint15_linear_4483:47192)"/>
<path d="M1228.82 367.559H1174.83V370.511H1228.82V367.559Z" fill="#E5D4B4"/>
<path d="M343.706 290.022H289.718V237.979C289.717 234.433 290.415 230.922 291.772 227.646C293.128 224.37 295.117 221.394 297.624 218.887C300.13 216.38 303.107 214.391 306.382 213.035C309.658 211.678 313.169 210.98 316.714 210.981C320.259 210.981 323.769 211.679 327.044 213.036C330.319 214.393 333.295 216.381 335.802 218.888C338.308 221.395 340.296 224.372 341.652 227.647C343.009 230.923 343.706 234.433 343.706 237.979V290.022Z" fill="url(#paint16_linear_4483:47192)"/>
<path d="M343.706 239.349H289.718V242.302H343.706V239.349Z" fill="#E5D4B4"/>
<path d="M432.806 210.981C439.964 210.981 446.83 213.825 451.892 218.887C456.954 223.949 459.798 230.815 459.798 237.974V290.022H405.81V237.979C405.809 234.433 406.507 230.922 407.863 227.646C409.22 224.37 411.208 221.394 413.715 218.887C416.222 216.38 419.199 214.391 422.474 213.035C425.75 211.678 429.26 210.98 432.806 210.981Z" fill="url(#paint17_linear_4483:47192)"/>
<path d="M459.798 239.349H405.81V242.302H459.798V239.349Z" fill="#E5D4B4"/>
<path d="M343.706 418.253H289.718V366.188C289.717 362.643 290.415 359.132 291.772 355.856C293.128 352.58 295.117 349.604 297.624 347.097C300.13 344.59 303.107 342.601 306.382 341.244C309.658 339.888 313.169 339.19 316.714 339.19C320.259 339.19 323.769 339.889 327.044 341.246C330.319 342.602 333.295 344.591 335.802 347.098C338.308 349.605 340.296 352.581 341.652 355.857C343.009 359.132 343.706 362.643 343.706 366.188V418.253Z" fill="url(#paint18_linear_4483:47192)"/>
<path d="M343.706 367.559H289.718V370.511H343.706V367.559Z" fill="#E5D4B4"/>
<path d="M432.806 339.19C439.964 339.19 446.83 342.034 451.892 347.097C456.954 352.159 459.798 359.025 459.798 366.184V418.227H405.81V366.188C405.809 362.643 406.507 359.132 407.863 355.856C409.22 352.58 411.208 349.604 413.715 347.097C416.222 344.59 419.199 342.601 422.474 341.244C425.75 339.888 429.26 339.19 432.806 339.19Z" fill="url(#paint19_linear_4483:47192)"/>
<path d="M459.798 367.559H405.81V370.511H459.798V367.559Z" fill="#E5D4B4"/>
<path d="M842.334 131.341H674.569V99.7441H842.334V131.341ZM677.961 127.953H838.947V103.136H677.961V127.953Z" fill="#FDEED3"/>
<path d="M1008.87 461.12H508.041V473.679H1008.87V461.12Z" fill="url(#paint20_linear_4483:47192)"/>
<path d="M1027.37 473.68H489.539V486.239H1027.37V473.68Z" fill="url(#paint21_linear_4483:47192)"/>
<path d="M1047.37 486.239H469.533V498.798H1047.37V486.239Z" fill="url(#paint22_linear_4483:47192)"/>
<path d="M1067.27 498.798H449.64V511.358H1067.27V498.798Z" fill="url(#paint23_linear_4483:47192)"/>
<path d="M1398.08 472.624C1398.08 472.624 1412.52 446.527 1429.29 445.811C1446.06 445.096 1444.1 425.955 1444.1 425.955C1444.1 425.955 1466.44 481.61 1398.08 472.624Z" fill="url(#paint24_linear_4483:47192)"/>
<path d="M994.739 100.175C994.739 100.175 1037.55 93.8954 1053.11 112.622C1068.68 131.349 1089.05 112.26 1089.05 112.26C1089.05 112.26 1044.49 186.948 994.739 100.175Z" fill="url(#paint25_linear_4483:47192)"/>
<path d="M874.131 167.7C874.131 167.7 890.383 141.267 907.842 141.327C925.3 141.387 924.176 121.397 924.176 121.397C924.176 121.397 944.742 180.276 874.131 167.7Z" fill="url(#paint26_linear_4483:47192)"/>
<path d="M813.619 27.8145C813.619 27.8145 832.581 39.4773 832.53 52.0065C832.478 64.5356 846.821 63.7383 846.821 63.7383C846.821 63.7383 804.572 78.4699 813.619 27.8145Z" fill="url(#paint27_linear_4483:47192)"/>
<path d="M25.0919 511.349C25.0919 511.349 18.5023 478.546 48.9032 483.817C48.9032 483.817 58.5312 445.794 92.9875 459.982C127.444 474.171 114.269 493.721 114.269 493.721C114.269 493.721 141.123 478.817 161.387 493.721C161.387 493.721 179.63 457.121 204.963 477.804C204.963 477.804 238.407 459.918 243.471 489.084C243.471 489.084 269.82 475.098 274.889 499.716C274.889 499.716 284.008 504.108 284.008 511.353L25.0919 511.349Z" fill="#5C8232"/>
<path d="M902.627 511.349C902.627 511.349 898.011 488.359 919.314 492.053C919.314 492.053 926.063 465.404 950.211 475.348C974.358 485.291 965.127 498.997 965.127 498.997C965.127 498.997 983.947 488.549 998.152 498.997C998.152 498.997 1010.93 473.343 1028.69 487.842C1028.69 487.842 1052.13 475.305 1055.68 495.747C1055.68 495.747 1074.15 485.942 1077.7 503.199C1077.7 503.199 1084.09 506.276 1084.09 511.349H902.627Z" fill="#5C8232"/>
<path d="M865.52 511.349C865.52 511.349 862.646 497.035 875.916 499.337C875.916 499.337 880.113 482.744 895.15 488.937C910.187 495.13 904.437 503.66 904.437 503.66C904.437 503.66 916.156 497.152 924.999 503.66C924.999 503.66 932.959 487.687 944.014 496.712C944.014 496.712 958.607 488.907 960.822 501.634C960.822 501.634 972.316 495.531 974.527 506.272C974.527 506.272 978.509 508.19 978.509 511.349H865.52Z" fill="#5C8232"/>
<path d="M1001.49 511.349C1001.49 511.349 995.748 482.722 1022.28 487.321C1022.28 487.321 1030.68 454.134 1060.75 466.521C1090.82 478.908 1079.32 495.967 1079.32 495.967C1079.32 495.967 1102.76 482.955 1120.45 495.967C1120.45 495.967 1136.37 464.021 1158.47 482.075C1158.47 482.075 1187.66 466.46 1192.09 491.92C1192.09 491.92 1215.09 479.714 1219.51 501.199C1219.51 501.199 1227.46 505.03 1227.46 511.349H1001.49Z" fill="#5C8232"/>
<path d="M1127.05 511.349C1127.05 511.349 1122.43 488.359 1143.74 492.053C1143.74 492.053 1150.49 465.404 1174.64 475.348C1198.78 485.291 1189.55 498.997 1189.55 498.997C1189.55 498.997 1208.37 488.549 1222.57 498.997C1222.57 498.997 1235.36 473.343 1253.11 487.842C1253.11 487.842 1276.55 475.305 1280.1 495.747C1280.1 495.747 1298.57 485.942 1302.12 503.199C1302.12 503.199 1308.51 506.276 1308.51 511.349H1127.05Z" fill="#5C8232"/>
<path d="M1180.48 511.349C1180.48 511.349 1175.86 488.359 1197.17 492.053C1197.17 492.053 1203.92 465.404 1228.06 475.348C1252.21 485.291 1242.98 498.997 1242.98 498.997C1242.98 498.997 1261.8 488.549 1276 498.997C1276 498.997 1288.78 473.343 1306.54 487.842C1306.54 487.842 1329.98 475.305 1333.53 495.747C1333.53 495.747 1352 485.942 1355.55 503.199C1355.55 503.199 1361.94 506.276 1361.94 511.349H1180.48Z" fill="#5C8232"/>
<path d="M1324.98 511.349C1324.98 511.349 1322.68 499.854 1333.33 501.703C1333.33 501.703 1336.7 488.377 1348.78 493.351C1360.85 498.324 1356.23 505.173 1356.23 505.173C1356.23 505.173 1365.64 499.949 1372.75 505.173C1372.75 505.173 1379.14 492.346 1388.02 499.596C1388.02 499.596 1399.73 493.329 1401.51 503.548C1401.51 503.548 1410.74 498.648 1412.52 507.272C1412.52 507.272 1415.72 508.815 1415.72 511.349H1324.98Z" fill="#5C8232"/>
<path d="M1235.71 -23.4531H1205.33V709.911H1235.71V-23.4531Z" fill="url(#paint28_linear_4483:47192)"/>
<path d="M1362.46 -23.4531H1267.02V709.911H1362.46V-23.4531Z" fill="url(#paint29_linear_4483:47192)"/>
<path d="M1293.61 -23.4531H1267.02V709.911H1293.61V-23.4531Z" fill="#A7BD48"/>
<path d="M1267.03 450.147C1267.03 450.147 1260.07 407.008 1232.62 391.324C1205.17 375.64 1188.18 333.777 1172.49 327.252V323.33C1172.49 323.33 1191.53 335.251 1206.48 360.365C1218.27 380.191 1240.9 381.717 1252.66 392.608C1264.42 403.5 1276.63 427.468 1276.63 427.468L1267.03 450.147Z" fill="#A7BD48"/>
<path d="M1470 239.448V245.564C1447.39 257.231 1420.61 312.369 1396.43 323.325C1368.56 335.953 1353.74 386.734 1353.74 386.734L1349.28 373.657C1349.28 373.657 1367.57 322.338 1388.15 317.774C1408.74 313.21 1435.21 279.221 1450.9 257.326C1458.1 247.284 1464.82 242.108 1470 239.448Z" fill="#385A36"/>
<path d="M1304.07 315.05C1304.07 315.05 1303.21 663.626 1304.07 674.957C1304.07 674.957 1315.4 374.291 1304.07 315.05Z" fill="#A7BD48"/>
<path d="M1217.78 216.454C1217.78 216.454 1208.97 178.216 1189.6 175.031C1177.67 173.07 1162.04 173.643 1158.57 171.027C1155.09 168.411 1143.27 145.43 1143.27 145.43C1143.27 145.43 1158.09 170.264 1168.11 170.264C1178.13 170.264 1205.14 173.535 1209.48 185.19C1213.82 196.844 1223.86 204.253 1223.86 204.253L1217.78 216.454Z" fill="#325743"/>
<path d="M1354.15 602.988C1354.15 602.988 1354.42 619.543 1335.54 629.887C1316.65 640.231 1298.04 636.783 1303.01 654.721C1307.99 672.659 1267.35 664.38 1258.96 683.003C1250.57 701.627 1272.59 709.902 1272.59 709.902H1389.03C1389.03 709.902 1410.28 686.451 1389.03 664.38C1367.79 642.308 1354.15 602.988 1354.15 602.988Z" fill="url(#paint30_linear_4483:47192)"/>
<path d="M957.262 -83C958.701 -18.0009 1023.63 -11.6178 1028.64 -4.17871C1028.64 -4.17871 990.348 17.7721 1032.02 45.925C1073.69 74.078 1125.19 40.322 1137.18 74.6469C1149.16 108.972 1221.22 115.751 1248.22 81.9739C1255.29 73.1341 1254.87 65.5571 1250.85 59.0102C1262.77 61.056 1274.79 62.4359 1286.85 63.1435C1328.16 65.4149 1326.47 41.1625 1335.55 25.6853C1343.07 23.6208 1348.34 20.1124 1350.1 14.4793C1353.69 13.5483 1358.03 13.1432 1363.34 13.4276C1412.33 16.1041 1321.96 80.0085 1408.94 90.7103C1466.48 97.7873 1463.42 84.1677 1469.99 69.9792V-83H957.262Z" fill="url(#paint31_linear_4483:47192)"/>
<path d="M754.019 493.915H434.034V506.233H754.019V493.915Z" fill="#8A6F4E"/>
<path d="M754.019 512.198H434.034V524.52H754.019V512.198Z" fill="#8A6F4E"/>
<path d="M762.811 581.714H752.95V664.151H762.811V581.714Z" fill="#8A6F4E"/>
<path d="M718.597 581.714H708.736V664.151H718.597V581.714Z" fill="#8A6F4E"/>
<path d="M775.805 569.392H434.034V581.71H775.805V569.392Z" fill="#8A6F4E"/>
<path d="M754.019 549.406H434.034V561.724H754.019V549.406Z" fill="#8A6F4E"/>
<path d="M754.019 530.804H434.034V543.122H754.019V530.804Z" fill="#8A6F4E"/>
<path d="M451.794 581.714H441.934V664.151H451.794V581.714Z" fill="#8A6F4E"/>
<path d="M497.952 581.714H488.091V664.151H497.952V581.714Z" fill="#8A6F4E"/>
<path d="M218.293 215.174C214.91 215.166 211.545 215.66 208.307 216.64C204.217 206.727 194.059 199.693 182.173 199.693C168.959 199.693 157.879 208.378 154.901 220.066C152.544 219.177 150.045 218.723 147.527 218.726C136.528 218.726 127.611 227.204 127.611 237.66H246.349C246.349 225.243 233.786 215.174 218.293 215.174Z" fill="#F7F7F7"/>
<path d="M337.435 81.4094C333.07 81.3985 328.727 82.0361 324.549 83.3015C319.27 70.4965 306.16 61.4282 290.813 61.4282C273.759 61.4282 259.459 72.6342 255.619 87.7192C252.576 86.5742 249.351 85.9901 246.099 85.9952C231.903 85.9952 220.392 96.934 220.392 110.429H373.65C373.65 94.404 357.446 81.4094 337.435 81.4094Z" fill="#F7F7F7"/>
<path d="M1025.67 111.963H884.742C884.736 108.55 885.686 105.203 887.483 102.302C889.28 99.4001 891.854 97.0594 894.912 95.5445C897.97 94.0296 901.392 93.4009 904.789 93.7294C908.186 94.058 911.423 95.3308 914.135 97.4038C916.709 93.1751 920.359 89.7052 924.712 87.3482C929.066 84.9912 933.967 83.8315 938.915 83.9875C943.862 84.1435 948.68 85.6096 952.877 88.2362C957.073 90.8628 960.497 94.5557 962.8 98.9382C965.152 97.5103 967.85 96.7559 970.601 96.7573C973.039 96.7568 975.442 97.3441 977.606 98.4695C979.77 99.5949 981.63 101.225 983.03 103.222C985.043 98.5201 988.618 94.6571 993.15 92.2858C997.682 89.9145 1002.89 89.1803 1007.9 90.2074C1012.91 91.2344 1017.42 93.9596 1020.65 97.9227C1023.89 101.886 1025.65 106.844 1025.65 111.959L1025.67 111.963Z" fill="#F7F7F7"/>
<path d="M680.392 352.651C680.392 352.651 677.026 346.78 676.539 345.867C676.052 344.953 676.345 342.087 676.97 338.815C677.595 335.544 679.905 331.415 680.418 331.191C680.93 330.967 681.374 330.501 682.814 330.812C683.746 331.045 684.602 331.514 685.301 332.174C685.301 332.174 687.257 331.743 688.447 333.118C689.028 333.042 689.62 333.141 690.145 333.402C690.671 333.663 691.107 334.074 691.399 334.583C691.399 334.583 693.222 334.298 693.907 335.678C693.907 335.678 693.614 338.557 693.817 339.652C694.019 340.746 692.351 348.159 690.498 353.711C690.515 353.711 687.645 356.904 680.392 352.651Z" fill="#EEA886"/>
<path d="M683.262 343.474C683.262 343.474 685.973 345.526 686.438 346.491C686.903 347.457 693.14 342.987 693.14 342.987C693.14 342.987 685.848 340.242 683.262 343.474Z" fill="#CF8C6C"/>
<path d="M680.245 332.053C680.245 332.053 678.862 340.371 680.176 340.759C680.51 340.887 680.87 340.93 681.224 340.884C681.579 340.838 681.916 340.705 682.206 340.496L683.189 344.177C683.189 344.177 685.219 346.25 686.882 343.436C686.882 343.436 688.576 345.565 689.856 342.655C689.856 342.655 691.58 343.561 692.442 342.319C693.304 341.078 693.942 335.686 693.942 335.686C693.942 335.686 693.692 334.32 691.558 334.428C691.558 334.428 690.563 332.617 688.541 332.945C688.541 332.945 687.537 331.674 685.374 332.044C685.374 332.044 682.9 329.419 680.435 331.182C680.435 331.191 680.293 331.691 680.245 332.053Z" fill="#DB9C7C"/>
<path d="M676.551 345.604C676.551 345.604 679.999 340.953 683.015 339.242C683.692 338.854 684.42 338.604 685.037 339.087C685.653 339.57 685.731 341.074 684.338 343.164C682.946 345.255 682.11 348.595 682.11 348.595C682.11 348.595 680.033 350.323 676.551 345.604Z" fill="#EEA886"/>
<path d="M553.482 356.62C553.482 356.62 555.417 350.155 555.68 349.133C555.943 348.112 554.999 345.41 553.642 342.371C552.284 339.333 549.091 335.837 548.522 335.742C547.953 335.648 547.427 335.29 546.1 335.923C545.245 336.363 544.519 337.016 543.992 337.82C543.992 337.82 541.988 337.82 541.148 339.458C540.564 339.518 540.011 339.749 539.559 340.124C539.107 340.498 538.777 340.998 538.609 341.561C538.609 341.561 536.769 341.703 536.42 343.203C536.42 343.203 537.364 345.94 537.42 347.052C537.476 348.164 540.799 354.995 543.884 359.982C543.871 359.982 547.401 362.43 553.482 356.62Z" fill="#EEA886"/>
<path d="M548.595 348.353C548.595 348.353 546.44 350.97 546.19 352.017C545.94 353.064 538.863 350.142 538.863 350.142C538.863 350.142 545.349 345.802 548.595 348.353Z" fill="#CF8C6C"/>
<path d="M548.91 336.535C548.91 336.535 552.164 344.315 550.974 344.996C550.679 345.197 550.337 345.321 549.981 345.357C549.625 345.393 549.266 345.34 548.936 345.203L548.824 349.013C548.824 349.013 547.324 351.495 545.061 349.138C545.061 349.138 543.902 351.599 541.984 349.06C541.984 349.06 540.497 350.353 539.398 349.323C538.299 348.293 536.416 343.212 536.416 343.212C536.416 343.212 536.416 341.828 538.511 341.445C538.511 341.445 539.019 339.471 541.049 339.328C541.049 339.328 541.713 337.803 543.906 337.669C543.906 337.669 545.708 334.583 548.518 335.751C548.662 336.006 548.793 336.267 548.91 336.535Z" fill="#DB9C7C"/>
<path d="M555.603 348.888C555.603 348.888 551.181 345.155 547.872 344.173C547.122 343.953 546.359 343.875 545.872 344.487C545.385 345.099 545.648 346.582 547.484 348.297C549.32 350.013 550.901 353.068 550.901 353.068C550.901 353.068 553.302 354.28 555.603 348.888Z" fill="#EEA886"/>
<path d="M633.562 421.421C633.562 421.421 614.724 434.312 615.65 426.438C616.577 418.563 614.556 410.396 614.556 410.396C614.556 410.396 633.251 402.272 632.402 408.125C632.213 409.521 632.15 410.932 632.213 412.34C632.274 413.915 632.428 415.485 632.674 417.042C632.895 418.516 633.191 419.977 633.562 421.421Z" fill="#EEA886"/>
<path d="M533.334 363.257L554.452 356.318C554.452 356.318 564.705 377.437 566.42 382.527C568.049 387.372 574.901 400.31 576.311 402.853C578.035 406.004 594.843 430.187 598.023 430.187C600.01 430.187 605.557 428.149 610.043 426.347C612.754 425.252 615.081 424.244 615.995 423.822C618.43 422.701 631.691 419.119 636.307 419.598C636.307 419.598 637.406 419.749 639.073 419.912C642.888 420.283 649.684 420.727 653.158 419.598C658.153 417.973 660.773 413.995 663.768 410.736C666.763 407.478 676.624 396.082 677.37 393.72C678.115 391.359 678.663 370.283 678.93 364.339C679.219 358.305 679.042 351.763 678.93 351.013C678.818 350.263 699.298 350.314 699.048 352.435C698.798 354.555 696.397 372.054 695.6 380.45C694.902 387.885 693.096 395.388 691.721 398.755C690.346 402.121 675.745 424.093 673.995 428.088C672.245 432.084 665.121 442.311 664.514 443.816C663.906 445.32 661.868 462.021 659.997 466.887C658.127 471.753 659.902 504.979 660.652 510.345C661.214 513.919 662.196 517.414 663.579 520.758C663.579 520.758 633.915 527.193 604.583 529.438C604.583 529.438 606.496 515.37 606.121 510C605.746 504.63 599.226 471.029 596.498 465.784C593.769 460.538 568.54 423.597 567.54 422.098C566.541 420.598 558.378 410.542 556.589 406.702C556.589 406.698 533.92 366.257 533.334 363.257Z" fill="#272A45"/>
<path d="M632.674 417.042C621.348 419.132 617.12 412.547 617.12 412.547C624.477 417.525 632.131 412.396 632.204 412.34C632.269 413.915 632.426 415.485 632.674 417.042Z" fill="#A77860"/>
<path d="M729.057 527.408C728.627 530.554 709.664 543.786 705.962 546.454C702.971 548.579 700.359 549.553 695.851 551.251C685.581 553.953 621.133 573.184 621.133 573.184C621.002 572.508 620.786 571.85 620.491 571.228C618.086 572.185 615.608 572.805 614.026 573.297C611.63 574.046 592.585 574.65 588.685 575.4C584.785 576.15 576.988 577.348 573.838 574.348C570.688 571.348 575.786 564.901 580.134 563.25C584.483 561.599 600.39 561.151 603.23 560.849C606.071 560.548 609.829 559.5 611.63 560.099C612.199 560.289 614.712 559.552 617.883 558.457C617.806 557.289 617.789 556.552 617.789 556.552L634.709 551.673L631.575 521.706C631.575 521.706 638.937 493.962 668.351 515.129C668.351 515.129 674.914 517.06 677.164 517.659C677.414 517.697 677.668 517.697 677.918 517.659C682.405 517.318 701.686 511.487 708.655 511.487C716.154 511.487 718.568 511.056 721.253 512.388C723.938 513.719 729.506 524.279 729.057 527.408Z" fill="#525252"/>
<path d="M698.924 574.348C695.773 577.365 687.973 576.15 684.077 575.4C680.181 574.65 661.131 574.046 658.731 573.297C656.33 572.547 651.835 571.499 648.685 569.418C648.147 569.119 647.583 568.871 647 568.676L642.259 572.124L576.014 551.001C572.049 549.915 568.899 548.26 566.804 546.437C563.356 543.42 544.156 530.537 543.708 527.391C543.26 524.244 548.807 513.741 551.505 512.392C554.202 511.043 556.603 511.491 564.102 511.491C571.601 511.491 593.348 518.241 595.598 517.642C596.619 517.37 598.735 516.288 600.743 515.193C603.148 513.9 605.394 512.543 605.394 512.543C637.6 498.165 641.164 521.689 641.164 521.689L639.255 550.734C639.255 550.734 641.94 552.065 645.431 553.725L661.377 558.237L659.283 559.746C660.188 560.039 660.83 560.177 661.088 560.082C662.886 559.483 666.635 560.535 669.484 560.832C672.332 561.129 688.231 561.582 692.58 563.233C696.928 564.883 702.07 571.348 698.924 574.348Z" fill="#525252"/>
<path d="M600.744 515.228C602.963 515.383 617.982 524.076 621.534 526.154C616.121 523.327 595.598 517.676 595.598 517.676C596.636 517.383 598.735 516.306 600.744 515.228Z" fill="#474747"/>
<path d="M677.921 517.68C677.921 517.68 652.063 523.956 647.322 526.581C647.538 526.425 660.945 516.236 667.987 514.875C667.987 514.875 674.905 517.06 677.154 517.659C677.404 517.697 677.658 517.697 677.908 517.659L677.921 517.68Z" fill="#474747"/>
<path d="M698.924 574.348C695.773 577.365 687.973 576.15 684.077 575.4C680.181 574.65 661.132 574.047 658.731 573.297C658.042 573.081 657.18 572.866 656.223 572.56C653.857 571.857 650.926 570.896 648.685 569.4C648.148 569.102 647.583 568.853 647 568.659L658.985 560.009L659.326 559.763C660.231 560.056 660.873 560.194 661.132 560.099C662.929 559.5 666.678 560.552 669.527 560.849C672.376 561.147 688.274 561.599 692.623 563.25C696.971 564.901 702.07 571.349 698.924 574.348Z" fill="#292929"/>
<path d="M698.923 574.348C695.773 577.365 687.972 576.15 684.076 575.4C680.18 574.65 661.131 574.047 658.731 573.297C658.041 573.081 657.179 572.866 656.223 572.56C656.223 572.56 661.468 567.388 658.99 560.009L659.33 559.763C660.235 560.056 660.877 560.194 661.136 560.099C662.933 559.5 666.682 560.552 669.531 560.849C672.38 561.147 688.278 561.599 692.627 563.25C696.975 564.901 702.07 571.349 698.923 574.348Z" fill="#292929"/>
<path d="M607.317 521.831C607.337 521.856 607.349 521.887 607.349 521.92C607.349 521.952 607.337 521.983 607.317 522.008C606.98 522.233 607.04 522.125 607.317 521.831Z" fill="#E55353"/>
<path d="M615.19 543.183C615.19 543.183 594.244 530.632 585.099 528.658C576.454 526.792 573.299 523.559 573.299 523.559C573.299 523.559 587.047 523.559 596.197 530.054C602.407 534.468 615.19 543.183 615.19 543.183Z" fill="#333333"/>
<path d="M633.799 551.936C633.799 551.936 670.229 532.804 685.085 528.662C693.601 526.283 696.88 523.563 696.88 523.563C696.88 523.563 674.358 525.762 660.679 534.011C654.154 537.937 633.799 551.936 633.799 551.936Z" fill="#333333"/>
<path d="M620.486 571.228C618.081 572.185 615.603 572.805 614.021 573.297C611.625 574.046 592.58 574.65 588.68 575.4C584.78 576.15 576.983 577.348 573.833 574.348C570.683 571.348 575.781 564.901 580.13 563.25C584.478 561.599 600.385 561.151 603.225 560.849C606.066 560.548 609.824 559.5 611.625 560.099C612.194 560.289 614.707 559.552 617.879 558.457C617.982 560.358 620.486 571.228 620.486 571.228Z" fill="#292929"/>
<path d="M633.799 569.413L669.613 558.815L662.528 556.66C662.528 556.66 633.911 567.026 633.799 569.413Z" fill="#525252"/>
<path d="M633.799 569.413L650.559 564.302L638.936 571.051L633.799 569.413Z" fill="#333333"/>
<path d="M622.287 526.581L621.533 526.149C621.793 526.279 622.044 526.423 622.287 526.581Z" fill="#525252"/>
<path d="M614.03 573.297C611.634 574.046 592.589 574.65 588.689 575.4C584.789 576.15 576.992 577.348 573.842 574.348C570.691 571.348 575.79 564.901 580.138 563.25C584.487 561.599 600.394 561.151 603.234 560.849C606.074 560.548 609.832 559.5 611.634 560.099C611.634 560.099 606.824 567.448 614.03 573.297Z" fill="#292929"/>
<path d="M602.196 523.559L596.675 492.161L668.027 490.514L663.437 521.408C663.437 521.408 640.66 529.744 632.933 534.606C632.928 534.623 613.392 526.58 602.196 523.559Z" fill="#DBCAC2"/>
<path d="M618.085 372.274C618.085 372.274 636.242 365.865 637.087 388.32C637.949 411.103 633.993 414.232 628.084 415.331C620.667 416.714 612.595 414.469 606.134 397.535C599.984 381.381 606.656 373.61 618.085 372.274Z" fill="#EEA886"/>
<path d="M608.082 402.104C608.082 402.104 606.268 398.91 607.94 397.746C608.149 397.585 608.389 397.469 608.645 397.406C608.901 397.342 609.167 397.332 609.427 397.377C609.687 397.422 609.935 397.519 610.155 397.665C610.376 397.81 610.563 397.999 610.707 398.22L612.504 397.918C612.504 397.918 608.936 392.143 614.555 390.919C620.175 389.695 632.174 388.63 635.203 386.376C635.203 386.376 636.251 390.686 636.363 391.691C636.475 392.695 637.186 391.458 637.186 391.458C637.186 391.458 638.263 375.209 627.804 369.74C617.344 364.27 605.945 370.787 604.1 376.985C602.255 383.183 601.725 389.294 608.082 402.104Z" fill="#E8734D"/>
<path d="M608.32 393.686C608.32 393.686 606.32 392.109 606.01 393.759C605.699 395.41 609.406 402.414 610.362 402.461C611.319 402.508 610.694 395.591 608.32 393.686Z" fill="#EEA886"/>
<path d="M603.334 390.113L583.78 384.885L619.172 360.495L651.801 372.429L636.553 383.126L603.334 390.113Z" fill="#292929"/>
<path d="M603.963 391.815C603.963 391.815 622.374 384.23 636.842 384.919L636.234 380.984C636.234 380.984 621.15 379.691 602.575 387.992L603.963 391.815Z" fill="#525252"/>
<path d="M599.149 384.894H598.27V406.698H599.149V384.894Z" fill="#292929"/>
<path d="M598.727 406.008H598.696C596.628 406.107 596.869 416.745 596.869 416.745H600.554C600.554 416.745 600.791 406.107 598.727 406.008Z" fill="#292929"/>
<path d="M612.47 425.351C612.47 425.351 620.283 433.174 630.01 430.092C639.737 427.011 637.203 419.701 637.203 419.701C637.203 419.701 630.226 417.451 612.47 425.351Z" fill="#C4B5AE"/>
<path d="M615.883 421.11L626.804 426.007L627.23 424.908L628.213 425.679L632.781 417.706L615.883 421.11Z" fill="#EEA886"/>
<path d="M615.883 421.111C615.883 421.111 623.981 423.593 627.231 424.908L624.895 431.674L615.056 424.244L615.883 421.111Z" fill="#EAD8CF"/>
<path d="M627.235 424.908C627.235 424.908 631.308 420.783 632.786 417.706L634.73 419.533L632.903 429.644L627.235 424.908Z" fill="#EAD8CF"/>
<path d="M227.723 390.466L189.073 407.969L147.479 399.586L185.918 380.191L227.723 390.466Z" fill="#272A45"/>
<path d="M230.161 492.816C230.882 493.015 231.646 492.988 232.351 492.738C233.993 491.988 235.074 489.359 237.522 490.221C239.97 491.083 239.423 499.63 238.475 501.022C237.527 502.414 233.906 502.281 228.993 499.85C224.08 497.419 230.161 492.816 230.161 492.816Z" fill="#D99979"/>
<path d="M236.661 490.066C239.385 489.854 242.119 489.792 244.849 489.881C248.646 490.015 253.344 490.713 253.322 491.67C253.288 493.122 249.504 492.101 245.729 492.23C242.255 492.342 242.962 492.911 242.962 492.911C242.962 492.911 242.768 492.738 246.582 493.342C250.68 494.01 255.055 494.902 255.051 495.687C255.051 496.656 254.964 496.777 253.439 496.781C254.301 496.967 254.391 497.238 254.348 497.617C254.124 499.57 247.952 499.535 245.5 499.518C247.383 499.544 248.763 499.764 247.853 500.871C246.815 502.139 238.087 501.69 234.946 501.833C231.506 502.005 236.661 490.066 236.661 490.066Z" fill="#D99979"/>
<path d="M188.689 446.79L187.521 484.627C187.521 484.627 185.884 489.321 196.598 491.049C207.536 492.812 233.192 490.286 233.192 490.286C233.192 490.286 234.635 514.573 233.192 514.651C229.024 514.87 187.689 504.246 175.398 501.669C165.641 499.622 171.752 447.841 171.752 447.841L188.689 446.79Z" fill="#282B45"/>
<path d="M182.746 538.312C183.035 541.709 183.263 549.131 183.431 556.927C183.47 558.651 183.504 560.41 183.535 562.142C183.728 572.642 183.823 582.356 183.823 582.356C183.328 595.558 181.237 624.129 177.26 630.551C171.915 639.21 165.714 711.286 165.714 711.286L146.083 713.376C146.083 713.376 144.868 665.195 147.807 652.605C151.078 638.55 157.37 619.418 153.776 606.613C151.522 598.588 146.82 572.771 146.82 572.771C146.82 572.771 141.795 543.73 147.009 521.443C148.307 515.879 182.746 538.312 182.746 538.312Z" fill="#62626B"/>
<path d="M200.571 712.747H180.444C180.444 712.747 173.687 674.116 173.118 657.092C173.05 655.523 173.069 653.952 173.174 652.385C173.467 648.778 173.898 644.821 174.294 640.748V640.662C175.48 628.478 176.35 615.099 172.286 606.04C168.873 598.433 160.417 573.573 160.417 573.573C160.417 573.573 151.164 545.558 153.039 522.771C153.509 517.073 189.271 531.391 189.271 531.391C190.055 534.709 192.447 545.183 193.296 552.91C198.136 597.196 196.313 626.047 196.313 626.047C193.581 635.809 200.571 712.747 200.571 712.747Z" fill="#62626B"/>
<path d="M186.173 436.95C186.173 436.95 190.573 453.298 192.008 462.12C193.443 470.943 190.142 495.234 189.875 500.225C189.047 515.715 188.668 532.847 188.668 532.847L154.595 547.932C152.067 537.841 150.053 527.627 148.561 517.331C146.135 500.496 147.941 485.937 149.454 476.253C154.194 445.876 173.351 431.179 173.351 431.179L186.173 436.95Z" fill="#CFBEB6"/>
<path d="M204.398 403.944C204.398 403.944 208.182 411.435 206.161 412.529C204.493 413.434 207.837 420.774 208.268 421.973C208.699 423.171 205.252 423.938 204.48 424.679C203.709 425.421 201.278 434.739 198.446 434.946C195.615 435.153 182.97 430.403 179.604 426.718C176.238 423.033 173.872 406.741 176.398 399.961C178.923 393.182 197.71 390.859 204.398 403.944Z" fill="#EEA886"/>
<path d="M192.788 429.653C192.788 429.653 192.546 430.541 192.193 431.916C192.047 432.493 191.878 433.153 191.702 433.868C191.568 434.42 191.426 434.997 191.271 435.592C191.219 435.808 191.167 436.023 191.12 436.243C190.887 437.247 190.655 438.299 190.443 439.333C189.896 442.01 189.491 444.591 189.581 446.065C189.767 450.117 175.204 430.98 175.204 430.98C177.477 422.027 179.109 412.923 180.087 403.737C181.565 389.143 192.788 429.653 192.788 429.653Z" fill="#EEA886"/>
<path d="M205.148 405.569C205.148 405.569 206.626 397.711 199.373 391.6C192.12 385.488 180.953 395.479 179.397 395.845C177.841 396.212 169.213 396.526 173.019 411.969C176.411 425.718 176.639 424.899 176.639 424.899C176.639 424.899 180.005 418.231 181.647 417.115C184.233 415.391 189.702 415.956 189.702 415.956C189.702 415.956 187.288 408.969 191.426 408.099C195.563 407.228 201.049 403.926 205.148 405.569Z" fill="#323657"/>
<path d="M185.457 411.883C185.121 410.926 184.078 406.814 180.483 409.116C176.889 411.417 182.375 419.253 182.983 419.369C183.591 419.486 188.258 419.947 185.457 411.883Z" fill="#EEA886"/>
<path d="M190.844 538.342C190.844 538.342 189.279 531.041 188.978 529.951L142.997 537.545L143.471 543.441C143.471 543.441 176.596 541.476 190.844 538.342Z" fill="#23263D"/>
<path d="M190.228 473.593C189.625 477.097 189.103 480.636 188.655 484.174C187.763 491.23 187.151 498.307 186.754 505.211C186.711 505.931 186.677 506.647 186.638 507.366C186.578 508.526 186.526 509.681 186.474 510.814C186.414 512.345 186.358 513.862 186.315 515.366C185.392 546.764 173.696 571.504 173.696 571.504C173.696 571.504 150.449 573.085 144.467 569.857C144.467 569.857 141.019 537.101 142.898 502.13C143.045 499.432 143.36 495.001 143.579 492.325C145.941 464.012 159.771 452.901 173.416 431.123C173.825 431.541 193.396 455.177 190.228 473.593Z" fill="#323657"/>
<path d="M191.951 433.338C191.719 434.342 191.223 435.67 191.016 436.704C186.008 433.76 180.944 428.946 180.944 428.157C182.694 430.683 191.831 433.26 191.951 433.338Z" fill="#A77860"/>
<path d="M186.646 503.427C186.603 504.134 186.569 504.832 186.53 505.531C186.47 506.664 186.418 507.789 186.366 508.91C181.152 507.854 171.243 505.216 168.265 499.975C164.206 492.825 174.338 476.128 174.558 475.77C174.463 476.201 170.222 496.777 174.558 498.82C177.368 500.143 183.203 501.958 186.646 503.427Z" fill="#282B45"/>
<path d="M271.72 471.968L267.945 519.551L237.406 517.124L239.992 469.451L271.72 471.968Z" fill="#BF2E2E"/>
<path d="M230.161 498.872C230.882 499.071 231.646 499.044 232.351 498.794C233.993 498.044 235.074 495.415 237.522 496.277C239.97 497.139 239.423 505.686 238.475 507.082C237.527 508.479 233.906 508.336 228.993 505.906C224.08 503.475 230.161 498.872 230.161 498.872Z" fill="#EEA886"/>
<path d="M236.661 496.109C239.385 495.899 242.119 495.837 244.849 495.924C248.646 496.057 253.344 496.755 253.322 497.712C253.288 499.165 249.504 498.143 245.729 498.273C242.255 498.385 242.962 498.953 242.962 498.953C242.962 498.953 242.768 498.781 246.582 499.384C250.68 500.053 255.055 500.945 255.051 501.729C255.051 502.699 254.964 502.82 253.439 502.824C254.301 503.013 254.391 503.281 254.348 503.66C254.124 505.612 247.952 505.578 245.5 505.565C247.383 505.587 248.763 505.806 247.853 506.914C246.815 508.181 238.087 507.733 234.946 507.875C231.506 508.048 236.661 496.109 236.661 496.109Z" fill="#EEA886"/>
<path d="M202.929 648.312C177.687 650.933 139.576 648.312 139.576 648.312C138.571 630.404 136.128 596.161 139.145 523.706C142.161 451.25 173.334 431.183 173.334 431.183L190.349 452.94C195.572 475.007 189.189 515.737 189.625 520.137C189.663 520.508 189.788 521.71 189.982 523.585C192.124 544.346 202.929 648.312 202.929 648.312Z" fill="#323657"/>
<path d="M175.703 428.963C175.703 428.963 184.681 440.294 190.576 443.38L190.348 452.918L173.333 431.183L175.703 428.963Z" fill="#EDDAD3"/>
<path d="M166.389 397.913L165.636 397.999L167.768 416.747L168.522 416.661L166.389 397.913Z" fill="#F08D29"/>
<path d="M167.705 415.357H167.679C165.705 415.676 167.093 425.869 167.093 425.869L168.851 425.671H168.877L170.631 425.472C170.631 425.472 169.7 415.236 167.705 415.357Z" fill="#F08D29"/>
<path d="M204.312 396.474L206.506 391.432L186.966 385.092L167.369 398.418L171.705 401.345L204.312 396.474Z" fill="#272A45"/>
<path d="M205.04 396.651L205.204 402.422C205.204 402.422 194.179 399.927 172.256 407.969L170.631 401.724C170.631 401.724 190.382 393.983 205.04 396.651Z" fill="#51578F"/>
<path d="M189.982 523.581C189.982 523.581 176.699 524.619 175.199 519.551C173.699 514.482 169.765 488.95 169.765 488.95L189.624 520.098C189.663 520.486 189.796 521.693 189.982 523.581Z" fill="#282B45"/>
<path d="M166.36 467.232C165.227 462.991 162.365 444.087 173.053 442.281C183.741 440.475 186.151 453.134 187.909 462.698C189.753 472.701 191.654 498.001 193.628 498.751C195.602 499.501 208.919 499.54 211.703 499.285C214.487 499.031 232.023 497.014 233.433 496.992C234.842 496.971 234.006 528.658 234.006 528.658C234.006 528.658 189.129 519.659 180.746 518.366C172.364 517.073 166.36 467.232 166.36 467.232Z" fill="#323657"/>
<path d="M190.349 452.918L173.334 431.183C169.582 432.239 166.142 434.19 163.309 436.868C158.465 441.389 140.494 460.711 141.054 502.061C141.054 502.061 152.919 444.031 169.765 438.48C169.765 438.458 176.273 437.95 190.349 452.918Z" fill="#F08D29"/>
<path d="M345.503 429.812C345.503 429.812 341.318 421.878 342.486 413.663C343.654 405.448 351.325 392.178 365.957 395.518C365.957 395.518 376.425 398.043 377.412 413.784C377.412 413.784 379.464 432.071 378.99 442.027C378.373 455.086 371.84 462.448 368.215 473.822C364.591 485.196 358.613 474.193 358.613 474.193L348.352 473.701L353.67 431.722L345.503 429.812Z" fill="#2E334D"/>
<path d="M319.3 516.879C319.946 513.732 322.968 509.272 323.321 504.724C323.674 500.177 329.729 482.437 329.837 479.761C329.945 477.084 332.979 464.913 335.871 459.651C338.819 454.267 348.369 451.031 348.369 451.031C348.369 451.031 343.426 477.412 343.482 482.894C343.482 484.541 342.969 487.541 342.189 490.997C342.191 491.024 342.191 491.052 342.189 491.079C342.046 491.737 342.015 492.415 342.098 493.083C342.34 495.053 343.46 496.372 342.771 498.958V500.341L342.564 501.117C341.59 504.849 340.693 508.828 340.271 510.599C340.185 510.97 340.116 511.246 340.077 511.405C339.431 513.819 340.219 512.534 339.073 518.577C339.09 518.577 318.059 522.951 319.3 516.879Z" fill="#292C47"/>
<path d="M383.998 533.938C383.998 533.938 392.186 544.566 394.388 557.177C396.591 569.788 393.095 612.104 393.173 618.336C393.251 624.568 399.069 640.076 397.914 651.816C396.759 663.557 387.083 722.655 387.083 722.655L379.468 721.246C379.468 721.246 380.373 659.923 379.649 654.997C378.925 650.071 377.468 632.107 377.18 630.077C376.891 628.047 358.781 574.771 358.781 565.677C358.781 556.582 364.289 519.107 383.998 533.938Z" fill="#EEA886"/>
<path d="M342.934 538.093C342.934 538.093 329.505 589.36 327.911 596.454C326.316 603.549 324.006 609.41 324.006 612.427C324.006 619.422 321.295 632.9 321.295 632.9L306.668 715.527H315.05C315.05 715.527 335.797 661.509 338.129 649.269C339.926 639.847 340.284 628.012 341.719 623.956C343.154 619.901 367.789 575.568 367.789 575.568C367.789 575.568 384.334 523.214 342.934 538.093Z" fill="#EEA886"/>
<path d="M324.006 612.427C324.006 612.427 355.07 625.762 401.318 625.762C401.318 625.762 399.288 565.508 392.565 550.415C385.842 535.321 341.865 542.114 341.865 542.114C341.865 542.114 324.006 599.782 324.006 612.427Z" fill="#292C47"/>
<path d="M358.144 447.104C358.144 447.104 350.972 450.487 348.481 450.983C345.99 451.479 336.328 464.034 334.634 468.615C332.941 473.197 334.634 480.071 338.121 488.14C341.607 496.208 338.323 498.915 339.914 506.97C341.504 515.025 341.508 537.036 341.207 541.519C340.905 546.001 384.899 557.203 394.16 549.031C394.16 549.031 387.989 527.421 382.933 516.478C381.964 514.366 381.451 504.974 382.546 502.186C383.64 499.397 395.992 478.576 395.992 478.576C395.992 478.576 398.543 457.806 393.156 453.621C388.471 449.983 374.068 448.341 371.776 447.544C369.483 446.746 362.824 446.406 358.144 447.104Z" fill="#EDDAD3"/>
<path d="M338.125 488.144C341.607 496.212 338.323 498.919 339.914 506.97C341.504 515.021 341.508 537.041 341.207 541.523C340.905 546.006 383.3 558.582 392.562 550.415C392.562 550.415 391.751 540.601 388.709 531.593C388.334 530.481 387.946 529.36 387.554 528.244C386.045 523.934 384.442 519.741 382.938 516.482C381.964 514.37 381.451 504.979 382.546 502.19C382.977 501.113 385.071 497.35 387.485 493.139C388.497 491.385 389.558 489.545 390.579 487.795C393.458 482.86 395.988 478.584 395.988 478.584C395.988 478.584 398.548 457.814 393.156 453.629C391.316 452.203 387.985 451.078 384.455 450.181C383.132 449.85 381.783 449.557 380.481 449.289C376.434 448.427 372.832 447.906 371.776 447.565C369.487 446.764 362.824 446.419 358.14 447.134C358.14 447.134 350.968 450.518 348.477 451.013C345.986 451.509 336.143 463.633 334.449 468.21C332.755 472.787 334.639 480.076 338.125 488.144Z" fill="#292C47"/>
<path d="M354.718 438.829C354.718 438.829 354.899 440.479 355.114 442.803C355.218 443.863 355.325 445.065 355.433 446.311C355.735 450.043 355.993 454.194 355.864 456.267C355.864 456.267 363.32 463.732 371.81 447.552C371.81 447.552 368.242 440.88 370.948 431.791C373.655 422.701 354.718 438.829 354.718 438.829Z" fill="#EEA886"/>
<path d="M377.507 448.699C377.507 448.699 353.632 462.819 353.632 462.745C353.632 461.728 351.632 449.94 351.632 449.94C351.632 449.94 355.14 447.932 356.127 447.742C357.114 447.553 371.689 447.367 371.689 447.367L377.507 448.699Z" fill="#EAD8CF"/>
<path d="M382.847 512.375C382.847 512.375 386.385 514.25 385.385 515.599C384.385 516.948 382.885 518.577 382.885 518.577L382.847 512.375Z" fill="#EEA886"/>
<path d="M353.739 515.37L370.547 513.599C369.008 512.892 366.513 511.599 366.97 510.853C367.616 509.793 372.573 511.508 374.546 511.517C376.339 511.517 378.697 512.534 379.08 512.702L383.218 512.271L382.869 518.581C382.869 518.581 374.047 520.469 371.487 520.9C367.323 521.598 354.019 517.835 353.735 517.098C353.235 515.767 353.739 515.37 353.739 515.37Z" fill="#EEA886"/>
<path d="M328.764 516.055C328.764 516.055 324.101 515.986 324.528 514.306C324.954 512.625 328.221 513.543 328.221 513.543L328.764 516.055Z" fill="#EEA886"/>
<path d="M355.079 442.389C355.178 443.445 355.325 445.052 355.433 446.298C362.608 443.712 365.569 438.863 365.569 438.863C363.724 440.385 355.079 442.389 355.079 442.389Z" fill="#C48A6F"/>
<path d="M392.234 482.903C392.234 482.903 392.419 511.06 396.599 557.294C399.982 594.704 406.339 662.527 406.339 662.527C406.339 662.527 346.55 666.608 306.668 657.329C306.668 657.329 332.979 554.156 333.974 534.985C334.97 515.814 332.613 491.096 334.224 476.248C335.836 461.4 392.234 482.903 392.234 482.903Z" fill="#292C47"/>
<path d="M316.503 497.647C316.503 497.647 311.111 495.367 310.275 495.061C309.439 494.755 307.008 495.29 304.267 496.169C301.526 497.048 298.234 499.466 298.083 499.945C297.932 500.423 297.587 500.841 298.005 502.044C298.304 502.819 298.797 503.505 299.436 504.035C299.436 504.035 299.255 505.759 300.578 506.621C300.574 507.128 300.72 507.625 300.998 508.048C301.277 508.472 301.675 508.803 302.143 509C302.143 509 302.091 510.599 303.349 511.039C303.349 511.039 305.789 510.487 306.75 510.547C307.711 510.608 312.503 508.634 317.093 506.461C317.08 506.466 322.433 504.746 316.503 497.647Z" fill="#DB9C7C"/>
<path d="M302.135 485.614L306.229 537.17L339.315 534.545L336.514 482.881L302.135 485.614Z" fill="#EDDAD3"/>
<path d="M347.167 514.767C346.387 514.981 345.559 514.951 344.797 514.681C343.012 513.87 341.84 511.022 339.194 511.957C336.548 512.892 337.138 522.15 338.164 523.658C339.19 525.167 343.111 525.02 348.412 522.365C353.713 519.71 347.167 514.767 347.167 514.767Z" fill="#EEA886"/>
<path d="M340.125 511.78C337.177 511.552 334.219 511.484 331.264 511.577C327.148 511.724 322.058 512.483 322.084 513.517C322.119 515.09 326.221 513.995 330.311 514.125C334.078 514.245 333.328 514.862 333.328 514.862C333.328 514.862 333.539 514.676 329.406 515.349C324.967 516.073 320.227 517.038 320.227 517.887C320.227 518.939 320.321 519.068 321.976 519.073C321.024 519.279 320.946 519.568 320.994 519.978C321.231 522.098 327.924 522.059 330.579 522.042C328.54 522.068 327.045 522.305 328.027 523.507C329.152 524.878 338.612 524.395 342.012 524.551C345.706 524.71 340.125 511.78 340.125 511.78Z" fill="#EEA886"/>
<path d="M389.493 451.328C386.502 451.078 379.335 454.552 379.244 462.853C379.175 469.064 379.145 474.412 379.352 476.869C379.559 479.326 379.584 495.768 378.128 497.303C376.283 499.242 365.892 504.289 364.944 504.901C361.682 507.005 345.585 513.767 345.585 513.767L353.166 544.217C353.166 544.217 389.889 519.361 393.561 516.633C395.983 514.823 398.013 507.711 398.996 499.94C399.995 492.045 399.427 473.218 399.332 471.619C399.237 470.02 400.401 452.233 389.493 451.328Z" fill="#3C3F66"/>
<path d="M298.799 499.673C298.799 499.673 305.694 497.665 306.268 498.699C307.065 500.134 306.268 500.471 306.268 500.471L309.534 500.932C309.534 500.932 311.525 502.453 309.284 504.177C309.284 504.177 311.288 505.41 308.927 506.815C308.927 506.815 309.888 508.216 308.927 509.06C307.966 509.905 303.389 511.043 303.389 511.043C303.389 511.043 302.315 510.853 302.182 509.004C301.711 508.813 301.309 508.483 301.029 508.058C300.75 507.633 300.606 507.134 300.617 506.625C300.617 506.625 299.381 505.918 299.475 504.039C299.475 504.039 296.851 502.255 298.122 499.949C298.343 499.845 298.569 499.753 298.799 499.673Z" fill="#EEA886"/>
<path d="M386.166 404.965H385.489V421.766H386.166V404.965Z" fill="#292929"/>
<path d="M385.816 421.236C387.411 421.309 387.225 429.506 387.225 429.506H384.385C384.385 429.506 384.226 421.309 385.816 421.236Z" fill="#292929"/>
<path d="M309.513 530.507C309.513 531.158 309.706 531.795 310.068 532.336C310.429 532.878 310.944 533.3 311.545 533.549C312.147 533.798 312.809 533.864 313.448 533.737C314.086 533.609 314.673 533.296 315.134 532.835C315.594 532.375 315.908 531.788 316.035 531.149C316.162 530.511 316.097 529.848 315.847 529.247C315.598 528.645 315.176 528.131 314.635 527.769C314.093 527.407 313.457 527.214 312.805 527.214C312.373 527.214 311.945 527.299 311.545 527.465C311.146 527.63 310.783 527.873 310.477 528.179C310.171 528.484 309.929 528.847 309.763 529.247C309.598 529.646 309.513 530.074 309.513 530.507Z" fill="#D14747"/>
<path d="M311.138 529.128C311.138 529.128 308.414 537.748 307.259 539.709L310.909 540.946C310.909 540.946 312.633 534.636 312.827 530.059L311.138 529.128Z" fill="#D14747"/>
<path d="M314.478 529.524C314.478 529.524 317.197 538.123 318.356 540.101L314.706 541.338C314.706 541.338 312.982 535.028 312.788 530.451L314.478 529.524Z" fill="#D14747"/>
<path d="M371.69 447.367L353.632 462.745L389.493 451.328C389.493 451.328 383.304 447.634 371.69 447.367Z" fill="#F08D29"/>
<path d="M353.631 462.745L355.557 447.927C355.557 447.927 348.338 449.832 343.305 453.272L353.631 462.745Z" fill="#F08D29"/>
<path d="M370.991 445.596L355.476 446.889L355.553 447.927C355.553 447.927 368.655 448.393 371.685 447.367L370.991 445.596Z" fill="#EAD8CF"/>
<path d="M356.726 399.884C356.726 399.884 341.258 408.107 344.844 426.757C348.43 445.406 357.829 442.656 359.695 442.148C361.467 441.669 371.172 438.368 372.659 424.593C374.146 410.818 370.905 395.294 356.726 399.884Z" fill="#EEA886"/>
<path d="M349.21 412.758C349.21 412.758 352.632 423.559 367.311 425.722C381.99 427.886 372.995 405.103 372.995 405.103C372.995 405.103 368.302 396.914 361.1 398.173C350.559 400.017 344.87 411.047 344.292 416.18C343.715 421.313 343.361 422.778 343.361 422.778C343.361 422.778 345.969 414.646 349.21 412.758Z" fill="#2E334D"/>
<path d="M343.921 404.875L327.251 398.13L358.031 384.566L397.383 404.875L378.614 411.861L343.921 404.875Z" fill="#272A45"/>
<path d="M344.086 408.241C344.086 408.241 359.454 406.517 377.465 414.771L379.688 409.051C379.688 409.051 359.39 401.422 343.672 403.315L344.086 408.241Z" fill="#51578F"/>
<path d="M1091.51 386.665C1091.51 386.665 1090.05 381.808 1092.21 379.877C1094.04 378.23 1095.22 374.787 1095.59 373.726C1096.08 372.304 1099.2 368.511 1097.41 367.873C1095.63 367.236 1091.97 373.907 1090.92 375.123C1089.87 376.338 1088.62 369.218 1087.36 368.093C1086.1 366.968 1074.38 369.718 1075.81 374.524C1077.24 379.329 1081.94 383.519 1082.02 384.411C1082.25 385.607 1082.55 386.789 1082.93 387.949L1091.51 386.665Z" fill="#EEA886"/>
<path d="M1087.95 369.119C1087.95 369.119 1082.59 354.698 1081.43 354.034C1080.27 353.37 1079.51 353.706 1079.95 355.077C1080.4 356.448 1084.72 369.158 1084.72 369.158C1084.72 369.158 1075.52 353.155 1074.69 352.405C1074.19 351.974 1072.68 352.53 1072.85 353.267C1073.02 354.004 1081.23 370.403 1081.23 370.403C1081.23 370.403 1072.61 355.478 1071.75 355.06C1071.53 354.976 1071.28 354.961 1071.05 355.018C1070.82 355.075 1070.61 355.2 1070.45 355.379C1070.29 355.557 1070.19 355.779 1070.16 356.016C1070.13 356.252 1070.17 356.493 1070.28 356.706C1070.84 357.857 1078.06 372.166 1078.06 372.166C1078.06 372.166 1071.1 361.697 1070.14 361.779C1069.56 361.831 1068.22 362.257 1070.1 364.904C1071.99 367.55 1075.76 374.257 1075.76 374.257L1087.95 369.119Z" fill="#EEA886"/>
<path d="M1188.9 400.065H1188.2V417.318H1188.9V400.065Z" fill="#292929"/>
<path d="M1188.54 416.771H1188.56C1190.19 416.848 1190.01 425.266 1190.01 425.266H1187.09C1187.09 425.266 1186.9 416.848 1188.54 416.771Z" fill="#292929"/>
<path d="M1092.15 423.576C1088.11 415.706 1075.01 385.273 1075.01 385.273L1091.82 382.687C1091.82 382.687 1098.51 397.979 1101.69 408.547C1103.25 413.719 1105.33 418.77 1105.79 419.585C1106.26 420.399 1127.69 436.626 1130.02 437.82C1132.35 439.014 1141.33 442.13 1145.61 446.479C1149.9 450.828 1147.82 456.823 1147.82 456.823C1138.72 468.529 1121.92 453.31 1121.92 453.31C1121.92 453.31 1097.81 434.601 1092.15 423.576Z" fill="#272A45"/>
<path d="M1139.75 547.368C1139.75 547.368 1133.69 591.433 1131.21 606.333C1128.32 623.75 1127.33 638.141 1126.52 647.157C1125.51 658.497 1125.51 716.522 1124.8 719.837C1124.08 723.151 1140.26 721.505 1140.26 721.505C1140.26 721.505 1150.74 645.782 1153.77 633.706C1156.59 622.461 1164.79 573.892 1167.36 576.965C1169.93 580.038 1177.81 635.055 1179.71 643.92C1181.61 652.786 1189.47 722.733 1189.47 722.733C1189.47 722.733 1202.46 726.302 1205.95 723.526C1205.95 723.526 1204.81 660.35 1203.6 643.722C1203.14 637.386 1207.61 567.866 1196.89 539.851C1191.24 525.016 1139.75 547.368 1139.75 547.368Z" fill="#9E918D"/>
<path d="M1157.55 441.682C1157.55 441.682 1141.5 445.001 1139.59 446.69C1137.53 448.483 1133.88 466.085 1133.66 470.964C1133.44 475.843 1135.6 496.32 1137.67 503.94C1139.74 511.56 1139.36 549.083 1138.05 559.638C1138.05 559.638 1170.37 568.819 1202.15 564.685C1202.15 564.685 1196.82 525.206 1198.09 514.767C1199.72 501.406 1203.64 470.581 1203.64 470.581C1203.64 470.581 1200.83 449.117 1198 446.721C1195.17 444.324 1175.67 441.682 1175.67 441.682H1157.55Z" fill="#272A45"/>
<path d="M1164.19 392.044C1164.19 392.044 1144.88 384.902 1146.09 410.577C1147.3 436.251 1151.82 438.846 1164.52 435.265C1177.22 431.683 1178.29 415.486 1179.94 407.681C1181.6 399.875 1170.5 393.164 1164.19 392.044Z" fill="#EEA886"/>
<path d="M1155.03 445.156C1155.03 445.156 1159 447.785 1174.07 441.148C1174.07 441.148 1173.64 430.804 1176.6 421.171C1179.56 411.538 1156.38 434.032 1156.38 434.032C1156.62 434.204 1156.67 435.17 1156.53 436.515C1156.38 437.86 1156.13 439.192 1155.79 440.501C1154.94 443.729 1155.03 442.342 1155.03 445.156Z" fill="#EEA886"/>
<path d="M1177.26 420.408C1177.26 420.408 1177.31 413.551 1174.46 412.922C1171.61 412.292 1170.15 416.253 1170.15 416.253L1167.86 416.133C1167.86 416.133 1169.91 409.185 1167.19 407.59C1164.47 405.995 1148.23 407.396 1146.17 405.06C1144.12 402.724 1147.09 388.829 1151.53 387.467C1155.96 386.105 1168.08 383.338 1175.77 390.191C1175.77 390.191 1182.47 390.316 1182.73 395.768C1183 401.22 1179.58 416.689 1177.26 420.408Z" fill="#525252"/>
<path d="M1155.79 440.501C1170.75 437.984 1172.99 429.472 1173.02 429.343C1167.21 436.842 1156.53 436.515 1156.53 436.515C1156.38 437.86 1156.13 439.192 1155.79 440.501Z" fill="#A77860"/>
<path d="M1171.24 410.008C1172.1 407.745 1176.9 408.03 1176.41 411.616C1175.91 415.202 1171.93 420.723 1170.34 419.688C1168.74 418.654 1170.06 413.124 1171.24 410.008Z" fill="#EEA886"/>
<path d="M1139.39 446.531C1139.39 446.531 1130.27 458.741 1133.65 490.312C1139.75 547.368 1123.76 638.955 1123.76 638.955L1140.26 641.718C1140.26 641.718 1156.02 527.037 1152.01 484.545C1150.18 465.18 1144.75 458.741 1153.3 442.609C1153.32 442.609 1144.98 442.885 1139.39 446.531Z" fill="#272A45"/>
<path d="M1180.11 442.342C1180.11 442.342 1154 468.714 1151.95 488.713C1149.91 508.711 1140.26 641.718 1140.26 641.718L1208.73 640.498C1208.73 640.498 1203.02 569.017 1201.63 560.073C1200.23 551.13 1197.35 499.79 1203.64 475.968C1207.02 463.167 1203 446.932 1195.28 445.156C1187.56 443.38 1180.11 442.342 1180.11 442.342Z" fill="#272A45"/>
<path d="M1151.37 442.764C1151.37 442.764 1144.36 445.022 1134.3 439.712C1124.24 434.403 1143.94 454.147 1143.94 454.147L1151.37 442.764Z" fill="#272A45"/>
<path d="M1112.51 445.669C1112.51 445.669 1132.82 470.008 1132.91 475.766C1133 481.524 1137.74 458.526 1137.74 458.526L1112.51 445.669Z" fill="#272A45"/>
<path d="M1145.51 399.97L1128.38 393.04L1160 379.11L1200.42 399.97L1181.47 406.974L1145.51 399.97Z" fill="#272A45"/>
<path d="M1180.11 442.342C1180.11 442.342 1164.62 452.772 1153.32 455.478C1152.85 455.59 1153.32 442.609 1153.32 442.609C1153.32 442.609 1162.81 438.807 1180.11 442.342Z" fill="#C4B5AE"/>
<path d="M1169.3 440.73C1169.3 440.73 1163.17 443.673 1158.39 444.113C1158.39 444.113 1155.92 443.191 1155.79 440.501L1169.3 440.73Z" fill="#EEA886"/>
<path d="M1153.32 455.478V442.609C1153.32 442.609 1144.24 442.471 1141.4 442.479L1153.32 455.478Z" fill="#F08D29"/>
<path d="M1155.79 440.501C1155.79 440.501 1156.62 443.225 1158.39 444.113L1152.83 450.048L1153.32 442.609L1155.79 440.501Z" fill="#EAD8CF"/>
<path d="M1145.57 403.263C1145.57 403.263 1162.15 401.362 1180.7 409.879L1182.3 404.155C1182.3 404.155 1161.39 396.298 1145.2 398.246L1145.57 403.263Z" fill="#51578F"/>
<path d="M1189.18 445.738C1189.18 445.738 1179.12 448.505 1184.65 466.965C1188.99 481.42 1189.57 484.524 1189.57 484.524L1212.77 478.727C1212.77 478.727 1205.97 446.971 1194.87 445.264C1194.87 445.264 1191.33 444.764 1189.18 445.738Z" fill="#272A45"/>
<path d="M1214.22 581.499C1214.22 581.499 1214.94 579.964 1214.92 579.141C1214.92 579.141 1214.78 577.641 1214.74 576.555C1214.73 576.279 1214.73 576.003 1214.74 575.727C1214.82 574.93 1215.23 573.198 1214.88 571.224C1214.53 569.25 1210.84 561.138 1210.84 561.138L1205.89 561.888L1201.15 561.931C1201.15 561.931 1196.75 573.379 1196.86 575.253C1196.87 575.431 1196.89 575.608 1196.92 575.784C1197.17 577.365 1198.02 578.434 1198.25 579.232C1198.33 579.533 1199.37 582.438 1200.24 582.753C1200.71 582.959 1201.22 583.043 1201.73 582.995C1202.24 582.948 1202.73 582.771 1203.15 582.481C1203.15 582.481 1205.55 583.235 1207.12 582.606C1207.12 582.606 1209.3 583.373 1211.03 582.033C1211.06 582.063 1213.36 582.593 1214.22 581.499Z" fill="#EEA886"/>
<path d="M1187.98 446.97C1185.87 447.789 1184.6 447.983 1185.96 458.763C1186.5 463.073 1188.77 476.49 1190.19 478.994C1191.62 481.498 1198.36 500.82 1198.81 503.25C1199.47 506.789 1199.59 533.42 1199.59 534.739C1199.59 537.756 1199.51 563.267 1199.51 563.267L1216.55 565.732C1216.55 565.732 1218.5 536.239 1218.84 532.722C1219.62 524.619 1219.7 507.81 1218.23 498.781C1216.55 488.476 1210.25 468.292 1209.35 466.671C1208.45 465.051 1201.89 441.583 1187.98 446.97Z" fill="#272A45"/>
<path d="M1194.49 488.269C1194.49 488.269 1199.48 502.492 1199.61 504.565C1199.74 506.638 1200.17 557.307 1200.17 557.307C1200.17 557.307 1194.83 504.992 1194.49 488.269Z" fill="#181A2B"/>
<path d="M1175.82 441.583L1153.32 455.478L1197.61 446.19C1197.61 446.19 1195.59 443.79 1175.82 441.583Z" fill="#F08D29"/>
<path d="M1174.06 438.29C1174.06 438.29 1166.19 443.031 1158.39 444.113L1161.26 451.979L1175.82 441.583L1174.06 438.29Z" fill="#EAD8CF"/>
<path d="M996.55 468.826C996.55 468.826 1001.99 465.103 1002.84 464.559C1003.69 464.016 1006.54 464.016 1009.82 464.288C1013.1 464.56 1017.4 466.331 1017.68 466.809C1017.95 467.288 1018.45 467.645 1018.29 469.025C1018.15 469.928 1017.78 470.779 1017.2 471.49C1017.2 471.49 1017.84 473.283 1016.59 474.533C1016.72 475.077 1016.68 475.649 1016.48 476.171C1016.27 476.692 1015.91 477.138 1015.44 477.446C1015.44 477.446 1015.9 479.132 1014.62 479.903C1014.62 479.903 1011.75 479.903 1010.69 480.201C1009.63 480.498 1003.68 480.11 998.028 478.908C998.028 478.908 991.736 477.808 996.55 468.826Z" fill="#EEA886"/>
<path d="M1005.87 470.632C1005.87 470.632 1004.12 473.373 1003.23 473.908C1002.33 474.442 1007.35 479.886 1007.35 479.886C1007.35 479.886 1009.31 472.749 1005.87 470.632Z" fill="#CF8C6C"/>
<path d="M1016.84 466.706C1016.84 466.706 1008.5 466.206 1008.25 467.473C1008.16 467.801 1008.16 468.146 1008.24 468.476C1008.32 468.806 1008.49 469.11 1008.72 469.357L1005.19 470.65C1005.19 470.65 1003.36 472.753 1006.3 474.046C1006.3 474.046 1004.37 475.839 1007.36 476.766C1007.36 476.766 1006.65 478.49 1007.95 479.149C1009.26 479.809 1014.63 479.921 1014.63 479.921C1014.63 479.921 1015.78 479.459 1015.46 477.464C1015.46 477.464 1017.13 476.404 1016.6 474.55C1016.6 474.55 1017.8 473.503 1017.22 471.508C1017.22 471.508 1019.7 468.973 1017.69 466.827C1017.7 466.81 1017.17 466.723 1016.84 466.706Z" fill="#DB9C7C"/>
<path d="M991.782 486.851C991.782 486.851 960.476 467.693 953.973 463.685C950.956 461.831 950.499 457.25 948.228 450.806C947.483 448.686 946.789 446.496 946.155 444.341C943.625 435.721 942.087 427.761 942.087 427.761C942.087 427.761 929.636 406.607 944.298 403.121C944.298 403.121 951.779 404.707 954.869 411.784C957.248 417.236 958.632 423.671 959.244 427.076C959.675 429.567 965.196 447.673 965.79 448.376C966.385 449.078 978.879 455.272 984.09 457.556C992.175 461.077 1002.07 462.853 1002.07 462.853L991.782 486.851Z" fill="#272A45"/>
<path d="M896.34 359.736H895.629V376.549H896.34V359.736Z" fill="#292929"/>
<path d="M895.995 376.015H895.969C894.301 376.093 894.491 384.295 894.491 384.295H897.456C897.456 384.295 897.667 376.097 895.995 376.015Z" fill="#292929"/>
<path d="M945.832 503.285C945.832 503.285 952.03 546.23 954.564 560.746C957.52 577.719 958.524 591.743 959.352 600.531C960.391 611.578 960.382 668.129 961.11 671.358C961.839 674.586 945.315 672.983 945.315 672.983C945.315 672.983 934.605 599.191 931.524 587.42C928.645 576.464 920.263 529.136 917.638 532.127C915.013 535.119 906.967 588.735 905.019 597.376C903.071 606.018 895.051 674.176 895.051 674.176C895.051 674.176 886.974 677.469 878.217 674.952C878.217 674.952 879.376 613.388 880.613 597.183C881.087 591.011 876.519 523.262 887.465 495.945C893.236 481.506 945.832 503.285 945.832 503.285Z" fill="#946646"/>
<path d="M927.65 400.298C927.65 400.298 944.048 403.53 945.996 405.177C948.108 406.926 951.836 424.059 952.056 428.83C952.275 433.601 950.078 453.543 947.966 460.965C945.854 468.387 946.242 504.957 947.578 515.245C947.578 515.245 914.557 524.189 882.07 520.159C882.07 520.159 887.513 481.688 886.212 471.516C884.548 458.483 880.54 428.455 880.54 428.455C880.54 428.455 883.415 407.538 886.306 405.207C889.198 402.875 909.118 400.298 909.118 400.298H927.65Z" fill="#272A45"/>
<path d="M920.871 351.926C920.871 351.926 940.596 344.983 939.364 369.981C938.131 394.979 933.507 397.53 920.53 394.039C907.554 390.548 906.467 374.761 904.778 367.171C903.089 359.581 914.419 353.017 920.871 351.926Z" fill="#EEA987"/>
<path d="M930.232 403.681C930.232 403.681 926.172 406.241 910.777 399.776C910.777 399.776 911.208 389.708 908.191 380.308C905.175 370.908 928.848 392.841 928.848 392.841C928.602 393.009 928.555 393.949 928.697 395.259C928.85 396.57 929.104 397.867 929.456 399.138C930.322 402.306 930.232 400.94 930.232 403.681Z" fill="#EEA987"/>
<path d="M907.519 379.558C907.519 379.558 907.463 372.877 910.377 372.265C913.29 371.653 914.785 375.511 914.785 375.511L917.134 375.39C917.134 375.39 915.035 368.623 917.815 367.072C920.595 365.52 937.209 366.882 939.282 364.602C941.355 362.322 938.347 348.789 933.813 347.457C929.279 346.125 916.902 343.436 909.041 350.112C909.041 350.112 902.205 350.237 901.929 355.547C901.654 360.857 905.149 375.937 907.519 379.558Z" fill="#163342"/>
<path d="M929.455 399.147C914.164 396.694 911.88 388.398 911.846 388.268C917.789 395.595 928.697 395.259 928.697 395.259C928.849 396.573 929.103 397.872 929.455 399.147Z" fill="#A77860"/>
<path d="M913.674 369.429C912.812 367.227 907.881 367.503 908.386 370.998C908.89 374.494 912.954 379.868 914.587 378.86C916.221 377.851 914.872 372.468 913.674 369.429Z" fill="#EEA987"/>
<path d="M946.203 405.017C946.203 405.017 955.525 416.917 952.073 447.686C945.832 503.285 962.171 592.541 962.171 592.541L945.315 595.23C945.315 595.23 929.214 483.472 933.313 442.066C935.183 423.196 940.73 416.917 931.977 401.198C931.977 401.198 940.497 401.47 946.203 405.017Z" fill="#272A45"/>
<path d="M904.605 400.94C904.605 400.94 931.283 426.64 933.373 446.126C935.463 465.611 945.315 595.23 945.315 595.23L875.359 594.041C875.359 594.041 881.195 524.382 882.617 515.668C884.039 506.953 886.991 456.922 880.561 433.704C877.113 421.231 881.216 405.409 889.107 403.681C896.999 401.953 904.605 400.94 904.605 400.94Z" fill="#272A45"/>
<path d="M939.954 359.646L957.452 352.896L925.15 339.315L883.854 359.646L903.214 366.473L939.954 359.646Z" fill="#272A45"/>
<path d="M904.605 400.94C904.605 400.94 920.431 411.103 931.977 413.741C932.459 413.853 931.977 401.198 931.977 401.198C931.977 401.198 922.275 397.492 904.605 400.94Z" fill="#998D88"/>
<path d="M915.423 399.289C915.423 399.289 921.913 402.254 926.792 402.681C926.792 402.681 929.317 401.785 929.455 399.164L915.423 399.289Z" fill="#EEA987"/>
<path d="M908.993 400.203L931.977 413.74L886.725 404.689C886.725 404.689 893.905 401.957 908.993 400.203Z" fill="#F08D29"/>
<path d="M931.977 413.74V401.198C931.977 401.198 939.583 401.34 944.294 403.103L931.977 413.74Z" fill="#F08D29"/>
<path d="M910.782 396.992C910.782 396.992 918.828 401.621 926.792 402.664L923.862 410.331L908.993 400.203L910.782 396.992Z" fill="#EAD8CF"/>
<path d="M929.455 399.147C929.455 399.147 928.593 401.797 926.792 402.664L932.468 408.448L931.977 401.198L929.455 399.147Z" fill="#EAD8CF"/>
<path d="M939.893 362.857C939.893 362.857 922.956 361.003 903.998 369.322L902.364 363.744C902.364 363.744 923.745 355.909 940.29 357.805L939.893 362.857Z" fill="#51578F"/>
<path d="M1047.99 437.079H1005.51V499.859H1047.99V437.079Z" fill="#2F4563"/>
<path d="M1003.1 464.547C1003.1 464.547 1008.03 467.34 1010 469.99C1010.45 470.589 1010.77 471.249 1010.35 471.87C1009.94 472.49 1008.47 472.732 1006.27 471.611C1004.07 470.49 1000.7 470.033 1000.7 470.033C1000.7 470.033 998.804 468.249 1003.1 464.547Z" fill="#EEA886"/>
<path d="M898.007 434.963C898.007 434.963 901.804 463.301 902.317 463.965C902.83 464.629 908.247 493.273 908.247 493.273C908.247 493.273 897.619 463.017 897.472 460.034C897.326 457.052 895.572 439.458 898.007 434.963Z" fill="#1B1E30"/>
<path d="M963.704 508.746L897.878 536.218L894.335 528.494L960.162 501.027L963.704 508.746Z" fill="#EDDAD3"/>
<path d="M935.132 520.672L926.452 524.292L922.909 516.568L931.589 512.948L935.132 520.672Z" fill="#E03636"/>
<path d="M924.788 541.653L922.021 542.441C921.935 542.17 920.021 535.8 925.797 530.21C927.572 528.486 928.128 526.49 927.452 524.266C927.102 523.18 926.551 522.169 925.827 521.288L928.016 519.495C929.009 520.669 929.759 522.029 930.223 523.495C930.908 525.731 931.05 529.046 927.852 532.14C923.267 536.584 924.771 541.601 924.788 541.653Z" fill="#E03636"/>
<path d="M930.985 542.166C930.8 541.95 926.507 536.735 929.64 529.481C930.602 527.244 930.326 525.171 928.817 523.383C928.064 522.506 927.155 521.775 926.137 521.228L927.43 518.775C928.814 519.504 930.046 520.491 931.058 521.684C932.575 523.512 934.024 526.529 932.287 530.546C929.826 536.252 933.08 540.291 933.218 540.459L930.985 542.166Z" fill="#E03636"/>
<path d="M908.101 536.382C908.101 536.382 907.002 535.27 906.769 534.559C906.769 534.559 906.45 533.235 906.162 532.304C906.091 532.064 906.006 531.828 905.907 531.598C905.597 530.934 904.709 529.568 904.433 527.775C904.158 525.982 905.058 517.965 905.058 517.965L909.739 517.198L914.014 515.905C914.014 515.905 921.392 524.473 921.849 526.115C921.893 526.271 921.928 526.429 921.952 526.589C922.202 528.012 921.758 529.175 921.797 529.934C921.797 530.214 921.746 533.007 921.06 533.524C920.692 533.838 920.252 534.057 919.779 534.161C919.307 534.266 918.816 534.253 918.349 534.123C918.349 534.123 916.423 535.455 914.824 535.36C914.824 535.36 913.1 536.653 911.131 535.985C911.131 535.964 909.217 537.076 908.101 536.382Z" fill="#EEA987"/>
<path d="M889.845 404.668C892.146 404.776 893.435 404.569 895.598 414.952C896.46 419.124 898.581 432.192 898.008 434.963C897.434 437.734 897.146 457.659 897.473 460.043C897.977 463.517 906.45 488.183 906.873 489.398C907.842 492.187 916.13 515.758 916.13 515.758L900.404 523.275C900.404 523.275 889.022 496.6 887.557 493.454C884.186 486.2 878.683 470.68 877.213 461.879C875.528 451.832 875.136 431.23 875.489 429.455C875.843 427.679 874.614 403.965 889.845 404.668Z" fill="#272A45"/>
</g>
<defs>
<linearGradient id="paint0_linear_4483:47192" x1="-102.451" y1="423.192" x2="392.772" y2="423.192" gradientUnits="userSpaceOnUse">
<stop stop-color="#B1D9F9"/>
<stop offset="1" stop-color="white"/>
</linearGradient>
<linearGradient id="paint1_linear_4483:47192" x1="-462344" y1="436034" x2="563098" y2="436034" gradientUnits="userSpaceOnUse">
<stop stop-color="#B1D9F9"/>
<stop offset="1" stop-color="white"/>
</linearGradient>
<linearGradient id="paint2_linear_4483:47192" x1="720.002" y1="697.101" x2="720.002" y2="458.612" gradientUnits="userSpaceOnUse">
<stop stop-color="#B3C45A"/>
<stop offset="1" stop-color="#639C38"/>
</linearGradient>
<linearGradient id="paint3_linear_4483:47192" x1="720.002" y1="524.369" x2="720.002" y2="835.819" gradientUnits="userSpaceOnUse">
<stop stop-color="#FADDAF"/>
<stop offset="1" stop-color="#FABD5A"/>
</linearGradient>
<linearGradient id="paint4_linear_4483:47192" x1="914.134" y1="320.356" x2="213.409" y2="320.356" gradientUnits="userSpaceOnUse">
<stop stop-color="#D1C3A4"/>
<stop offset="0.61" stop-color="#D7C9A8"/>
<stop offset="1" stop-color="#D7C9A8"/>
</linearGradient>
<linearGradient id="paint5_linear_4483:47192" x1="941934" y1="314754" x2="1.63856e+06" y2="314754" gradientUnits="userSpaceOnUse">
<stop stop-color="#D1C3A4"/>
<stop offset="0.61" stop-color="#D7C9A8"/>
<stop offset="1" stop-color="#D7C9A8"/>
</linearGradient>
<linearGradient id="paint6_linear_4483:47192" x1="1012.75" y1="316.865" x2="1332.79" y2="316.865" gradientUnits="userSpaceOnUse">
<stop stop-color="#E5D4B4"/>
<stop offset="1" stop-color="#FFECC7"/>
</linearGradient>
<linearGradient id="paint7_linear_4483:47192" x1="650596" y1="19132.4" x2="341520" y2="19132.4" gradientUnits="userSpaceOnUse">
<stop stop-color="#E5D4B4"/>
<stop offset="1" stop-color="#FFECC7"/>
</linearGradient>
<linearGradient id="paint8_linear_4483:47192" x1="760.484" y1="95.0721" x2="1278.14" y2="95.0721" gradientUnits="userSpaceOnUse">
<stop stop-color="#CBBD9F"/>
<stop offset="1" stop-color="#D7C9A8"/>
</linearGradient>
<linearGradient id="paint9_linear_4483:47192" x1="1.20251e+06" y1="48162.5" x2="275571" y2="48162.5" gradientUnits="userSpaceOnUse">
<stop stop-color="#CBBD9F"/>
<stop offset="1" stop-color="#D7C9A8"/>
</linearGradient>
<linearGradient id="paint10_linear_4483:47192" x1="758.453" y1="477.615" x2="758.453" y2="316.891" gradientUnits="userSpaceOnUse">
<stop stop-color="#D1C3A4"/>
<stop offset="0.99" stop-color="#C2B297"/>
</linearGradient>
<linearGradient id="paint11_linear_4483:47192" x1="99501.3" y1="74032.2" x2="99501.3" y2="55130.3" gradientUnits="userSpaceOnUse">
<stop stop-color="#D1C3A4"/>
<stop offset="0.99" stop-color="#C2B297"/>
</linearGradient>
<linearGradient id="paint12_linear_4483:47192" x1="140827" y1="74032.2" x2="140827" y2="55130.3" gradientUnits="userSpaceOnUse">
<stop stop-color="#D1C3A4"/>
<stop offset="0.99" stop-color="#C2B297"/>
</linearGradient>
<linearGradient id="paint13_linear_4483:47192" x1="1231.24" y1="250.499" x2="1113.8" y2="250.499" gradientUnits="userSpaceOnUse">
<stop stop-color="#D1C3A4"/>
<stop offset="0.33" stop-color="#D1C3A4"/>
<stop offset="0.99" stop-color="#C2B297"/>
</linearGradient>
<linearGradient id="paint14_linear_4483:47192" x1="140827" y1="97699.3" x2="140827" y2="78792.2" gradientUnits="userSpaceOnUse">
<stop stop-color="#D1C3A4"/>
<stop offset="0.99" stop-color="#C2B297"/>
</linearGradient>
<linearGradient id="paint15_linear_4483:47192" x1="159170" y1="85035.8" x2="147476" y2="85035.8" gradientUnits="userSpaceOnUse">
<stop stop-color="#D1C3A4"/>
<stop offset="0.33" stop-color="#D1C3A4"/>
<stop offset="0.99" stop-color="#C2B297"/>
</linearGradient>
<linearGradient id="paint16_linear_4483:47192" x1="41400" y1="61371.4" x2="46762.1" y2="61371.4" gradientUnits="userSpaceOnUse">
<stop stop-color="#D1C3A4"/>
<stop offset="0.99" stop-color="#C2B297"/>
</linearGradient>
<linearGradient id="paint17_linear_4483:47192" x1="58381.5" y1="74032.2" x2="58381.5" y2="55130.3" gradientUnits="userSpaceOnUse">
<stop stop-color="#D1C3A4"/>
<stop offset="0.99" stop-color="#C2B297"/>
</linearGradient>
<linearGradient id="paint18_linear_4483:47192" x1="40842.9" y1="85035.8" x2="46357.8" y2="85035.8" gradientUnits="userSpaceOnUse">
<stop stop-color="#D1C3A4"/>
<stop offset="0.99" stop-color="#C2B297"/>
</linearGradient>
<linearGradient id="paint19_linear_4483:47192" x1="58381.5" y1="97667.4" x2="58381.5" y2="78766.6" gradientUnits="userSpaceOnUse">
<stop stop-color="#D1C3A4"/>
<stop offset="0.99" stop-color="#C2B297"/>
</linearGradient>
<linearGradient id="paint20_linear_4483:47192" x1="758.454" y1="500.246" x2="758.454" y2="465.801" gradientUnits="userSpaceOnUse">
<stop stop-color="#D1C3A4"/>
<stop offset="1" stop-color="#EFDCBB"/>
</linearGradient>
<linearGradient id="paint21_linear_4483:47192" x1="984432" y1="17765.8" x2="984432" y2="16670.3" gradientUnits="userSpaceOnUse">
<stop stop-color="#D1C3A4"/>
<stop offset="1" stop-color="#EFDCBB"/>
</linearGradient>
<linearGradient id="paint22_linear_4483:47192" x1="1.0576e+06" y1="17759.2" x2="1.0576e+06" y2="17070.5" gradientUnits="userSpaceOnUse">
<stop stop-color="#D1C3A4"/>
<stop offset="1" stop-color="#EFDCBB"/>
</linearGradient>
<linearGradient id="paint23_linear_4483:47192" x1="1.13038e+06" y1="18211.3" x2="1.13038e+06" y2="17492.9" gradientUnits="userSpaceOnUse">
<stop stop-color="#D1C3A4"/>
<stop offset="1" stop-color="#EFDCBB"/>
</linearGradient>
<linearGradient id="paint24_linear_4483:47192" x1="1398.08" y1="449.781" x2="1447.59" y2="449.781" gradientUnits="userSpaceOnUse">
<stop stop-color="#6B9E34"/>
<stop offset="0.14" stop-color="#61933C"/>
<stop offset="1" stop-color="#1F4A6E"/>
</linearGradient>
<linearGradient id="paint25_linear_4483:47192" x1="224418" y1="15553.5" x2="236522" y2="36510.2" gradientUnits="userSpaceOnUse">
<stop stop-color="#6B9E34"/>
<stop offset="0.14" stop-color="#61933C"/>
<stop offset="1" stop-color="#1F4A6E"/>
</linearGradient>
<linearGradient id="paint26_linear_4483:47192" x1="-55289.5" y1="279389" x2="-40783.7" y2="277006" gradientUnits="userSpaceOnUse">
<stop stop-color="#6B9E34"/>
<stop offset="0.14" stop-color="#61933C"/>
<stop offset="1" stop-color="#1F4A6E"/>
</linearGradient>
<linearGradient id="paint27_linear_4483:47192" x1="234488" y1="-41132.6" x2="236356" y2="-33969.5" gradientUnits="userSpaceOnUse">
<stop stop-color="#6B9E34"/>
<stop offset="0.14" stop-color="#61933C"/>
<stop offset="1" stop-color="#1F4A6E"/>
</linearGradient>
<linearGradient id="paint28_linear_4483:47192" x1="1220.52" y1="628.796" x2="1220.52" y2="-65.4972" gradientUnits="userSpaceOnUse">
<stop stop-color="#426120"/>
<stop offset="1" stop-color="#1F4A6E"/>
</linearGradient>
<linearGradient id="paint29_linear_4483:47192" x1="299060" y1="1.19499e+06" x2="299060" y2="122096" gradientUnits="userSpaceOnUse">
<stop stop-color="#426120"/>
<stop offset="1" stop-color="#1F4A6E"/>
</linearGradient>
<linearGradient id="paint30_linear_4483:47192" x1="1249.01" y1="548.277" x2="1451.7" y2="904.996" gradientUnits="userSpaceOnUse">
<stop offset="0.01" stop-color="#B0BD24"/>
<stop offset="1" stop-color="#1F4A6E"/>
</linearGradient>
<linearGradient id="paint31_linear_4483:47192" x1="1.30948e+06" y1="138302" x2="1.374e+06" y2="-157548" gradientUnits="userSpaceOnUse">
<stop stop-color="#6B9E34"/>
<stop offset="0.14" stop-color="#61933C"/>
<stop offset="1" stop-color="#1F4A6E"/>
</linearGradient>
<clipPath id="clip0_4483:47192">
<rect width="1500" height="862" fill="white" transform="translate(-30 -83)"/>
</clipPath>
</defs>
</svg>
