<svg width="16" height="14" viewBox="0 0 16 14" fill="none" xmlns="http://www.w3.org/2000/svg">
<path fill-rule="evenodd" clip-rule="evenodd" d="M16 1.79478C15.4111 2.05572 14.7792 2.23269 14.1153 2.3117C14.7932 1.90576 15.3121 1.26189 15.5581 0.497028C14.9222 0.87295 14.2203 1.14592 13.4724 1.29389C12.8736 0.655015 12.0217 0.25708 11.0769 0.25708C9.26423 0.25708 7.7945 1.72681 7.7945 3.53847C7.7945 3.79541 7.82349 4.04637 7.87949 4.28634C5.15201 4.14935 2.73347 2.8426 1.11477 0.85695C0.831818 1.34087 0.670851 1.90474 0.670851 2.50665C0.670851 3.64545 1.25075 4.65026 2.13059 5.23813C1.59268 5.22015 1.08677 5.07217 0.64387 4.82621V4.86721C0.64387 6.45691 1.77566 7.78365 3.27637 8.08562C3.00142 8.1596 2.71148 8.2006 2.41153 8.2006C2.19959 8.2006 1.99462 8.1796 1.79365 8.1396C2.21156 9.44436 3.42335 10.3932 4.85909 10.4192C3.73629 11.299 2.32055 11.8219 0.782851 11.8219C0.517909 11.8219 0.256942 11.8059 0 11.7769C1.45273 12.7098 3.17742 13.2537 5.03107 13.2537C11.0689 13.2537 14.3693 8.2526 14.3693 3.91541L14.3583 3.4905C15.0032 3.03055 15.5611 2.45267 16 1.79478Z" fill="#1F2937"/>
</svg>
