<svg width="35" height="53" viewBox="0 0 35 53" fill="none" xmlns="http://www.w3.org/2000/svg">
<path d="M10.1796 29.6686C10.0343 29.1099 9.86673 28.5512 9.755 27.9813C9.26336 25.4673 8.51473 22.9868 8.64881 20.3833C8.7382 18.6179 9.26336 16.953 10.4142 15.6234C11.6768 14.1596 13.3417 13.3216 15.3083 13.0535C17.6771 12.7406 19.9788 12.8747 22.0906 14.0591C23.3979 14.7854 24.37 15.858 24.9957 17.2771C25.6103 18.6849 25.7891 20.1375 25.7444 21.6459C25.7332 21.8806 25.8784 22.1934 26.046 22.361C26.8058 23.065 26.9735 24.1376 26.4148 24.9757C25.9343 25.6908 24.5935 26.026 23.8449 25.5008C22.7275 24.7075 22.4482 23.1767 23.8337 22.2717C24.37 21.9141 24.5264 21.5789 24.5153 20.9755C24.4929 19.4559 24.2248 18.0034 23.3644 16.7296C22.5599 15.534 21.3978 14.8077 20.0012 14.4166C17.9676 13.8468 15.9675 13.8915 13.9563 14.5731C12.1685 15.1764 10.9953 16.372 10.3472 18.0592C9.84438 19.3777 9.72148 20.8079 9.93377 22.2158C10.1908 23.9142 10.5371 25.6126 10.8724 27.2998C11.5875 30.8753 12.2467 34.462 12.0903 38.1493C12.0344 39.5795 12.973 40.1941 14.4591 40.0376C13.8557 38.9314 13.8333 37.7359 13.8445 36.5291C13.8669 34.3838 13.7887 32.2496 13.3305 30.1378C13.1071 29.1322 12.8612 28.1266 12.6601 27.121C12.2467 25.0874 11.9003 23.065 12.4478 20.9643C12.7607 19.7576 13.3417 18.7296 14.3138 18.0816C15.8669 17.0424 17.5877 16.8636 19.3643 17.6905C21.4314 18.6626 21.99 20.4951 22.2023 22.5286C22.3699 24.1823 21.99 25.7913 21.666 27.4003C21.6213 27.6238 21.6995 27.9367 21.8336 28.1154C22.5711 29.0317 22.6046 29.6686 22.1018 30.5401C21.6995 31.2329 20.4704 31.6239 19.7218 31.2552C18.895 30.853 18.4815 30.0149 18.6491 29.0652C18.7832 28.2942 19.3196 27.9702 19.9453 27.6797C20.1017 27.6014 20.2917 27.4897 20.3475 27.3445C21.0626 25.3779 21.4425 23.3667 20.8168 21.3107C20.6045 20.5844 20.3475 19.8582 19.6771 19.3218C18.0905 18.0704 15.7105 18.1151 14.392 19.6012C13.5652 20.5286 13.2635 21.7577 13.2747 22.9756C13.2858 24.0706 13.3752 25.1991 13.6881 26.2383C14.6825 29.568 14.9842 32.9648 14.9619 36.4174C14.9619 36.9984 14.973 37.5906 15.0401 38.1605C15.1853 39.3784 15.7775 39.8477 17.1072 39.8142C16.3586 37.8923 16.5709 35.9034 16.5597 33.9257C16.5485 31.177 16.5485 28.4283 16.5597 25.6684C16.5597 25.255 16.5373 24.9421 16.0345 24.7745C15.4982 24.5958 15.1407 23.4672 15.3194 22.8415C15.7552 21.2884 17.2971 20.8861 18.5262 21.8247C19.4313 22.5063 19.2078 24.3052 18.2134 24.8416C18.0123 24.9533 17.8111 25.255 17.8111 25.4673C17.7888 29.2998 17.8 33.1324 17.8111 36.9649C17.8111 37.4789 17.867 38.004 17.9117 38.518C17.9787 39.4566 18.7497 40.0488 19.9453 40.0935C20.6939 40.1158 21.4537 40.0041 22.1576 40.4399C23.4873 41.2444 23.6884 42.7416 22.9286 43.7249C22.3364 44.4959 21.5766 44.7193 20.6827 44.7193C18.8614 44.7193 17.0402 44.7082 15.2189 44.7193C14.2244 44.7305 13.744 45.3339 14.0233 46.2836C14.0903 46.5183 14.3697 46.82 14.582 46.8423C15.4312 46.9429 16.3027 46.9541 17.1631 46.9541C17.3195 46.9541 17.5206 46.7418 17.6324 46.5742C18.381 45.535 19.6436 45.3786 20.6157 46.2054C21.1409 46.6524 21.2973 47.8479 20.9174 48.5631C20.5822 49.1999 19.5207 49.6804 18.8614 49.4346C18.4704 49.2893 18.0458 49.0659 17.8111 48.753C17.4983 48.3396 17.1742 48.172 16.6714 48.2055C16.1351 48.239 15.5876 48.2278 15.0513 48.2055C13.9563 48.1608 13.1965 47.5127 12.8054 46.5518C12.4031 45.5685 12.8277 44.7193 13.5428 44.1271C13.9451 43.7919 14.6043 43.6355 15.1518 43.6243C17.029 43.5685 18.9173 43.5685 20.8056 43.6132C21.7666 43.6355 22.5599 42.6411 21.9007 41.7695C21.7219 41.5461 21.3532 41.3449 21.0738 41.3449C18.7832 41.3114 16.4815 41.3338 14.1909 41.3226C12.9506 41.3114 11.9115 40.8533 11.2634 39.7248C11.1182 39.4789 11.0064 39.1661 11.0064 38.8867C11.0176 36.909 10.7271 34.9648 10.1684 33.0765C9.88908 32.1379 9.43096 31.244 8.97285 30.3725C7.90019 28.2942 6.6264 26.3165 5.73251 24.1712C4.88332 22.1487 4.69337 19.9811 5.33027 17.7687C5.87777 15.858 6.794 14.2043 8.09014 12.7406C9.62091 11.0087 11.5651 9.81313 13.7887 9.26562C15.7329 8.78516 17.7441 8.72929 19.7665 9.10919C21.8671 9.50027 23.7108 10.3606 25.2974 11.7238C27.8003 13.8691 29.2752 16.629 29.454 19.9364C29.5099 21.009 29.2193 22.1152 28.9959 23.1879C28.6048 25.0427 27.6103 26.6405 26.7276 28.2942C25.9231 29.7915 25.2416 31.3446 24.4929 32.8642C24.3141 33.2217 24.3812 33.4676 24.6717 33.7581C25.2527 34.3279 25.2974 35.5794 24.8393 36.2386C24.4259 36.842 23.3644 37.1548 22.6828 36.8979C21.7554 36.5403 21.2191 35.6911 21.3867 34.7637C21.5208 34.0151 21.9789 33.4676 22.7275 33.2888C23.1968 33.1771 23.3085 32.8418 23.465 32.4843C23.8895 31.501 24.2806 30.5066 24.7611 29.5568C25.9343 27.2215 27.4763 25.0427 28.0238 22.4616C28.4037 20.6291 28.3701 18.7743 27.6103 16.9419C26.7053 14.7407 25.2751 13.0199 23.342 11.7238C21.856 10.7294 20.1464 10.2377 18.3698 10.0366C15.8669 9.75726 13.487 10.3048 11.3528 11.5674C9.86673 12.4389 8.58177 13.6233 7.75493 15.1988C7.45324 15.791 7.16273 16.3832 6.86104 16.9754C6.44762 17.8022 6.29119 18.6626 6.23533 19.59C6.12359 21.3107 6.39175 22.9644 7.10686 24.5064C7.66554 25.7131 8.38065 26.8416 9.02872 28.0037C9.36392 28.5959 9.69913 29.1881 10.0343 29.7691C10.0567 29.7356 10.1125 29.7021 10.1796 29.6686ZM20.4928 28.6965C19.9341 28.6965 19.6101 28.987 19.6101 29.501C19.6101 30.0149 19.99 30.3613 20.5263 30.3725C20.9844 30.3725 21.342 29.9814 21.3532 29.501C21.3532 29.0205 21.0068 28.6965 20.4928 28.6965ZM24.1577 35.0542C24.1465 34.5514 23.6884 34.1603 23.1521 34.1827C22.7163 34.205 22.3811 34.6296 22.4146 35.1213C22.4593 35.6576 22.761 35.9146 23.2974 35.8922C23.8225 35.8699 24.1801 35.5123 24.1577 35.0542ZM18.0011 23.2214C18.0011 22.6069 17.8 22.3946 17.1966 22.4169C16.705 22.4393 16.3139 22.5733 16.3586 23.2102C16.3921 23.8024 16.6491 24.1153 17.1966 24.1153C17.7776 24.1265 18.0011 23.8695 18.0011 23.2214ZM24.0348 23.7354C24.0348 24.3499 24.3588 24.741 24.817 24.7522C25.2639 24.7634 25.8114 24.2382 25.7779 23.8024C25.722 23.2438 25.3086 23.0426 24.8393 23.0203C24.3141 22.9979 24.0572 23.322 24.0348 23.7354ZM19.219 48.429C19.7665 48.429 20.1576 48.0938 20.1688 47.6021C20.1799 47.144 19.8112 46.82 19.2972 46.7753C18.705 46.7306 18.4704 47.0323 18.4369 47.5463C18.4033 48.0714 18.7385 48.429 19.219 48.429Z" fill="#417837"/>
<path d="M17.7776 5.38833C17.7776 5.8241 17.8447 6.27104 17.7553 6.68447C17.6994 6.94146 17.3866 7.13141 17.1854 7.35488C16.9843 7.13141 16.6379 6.91911 16.6156 6.68447C16.5485 5.80175 16.5485 4.90787 16.6156 4.02516C16.6268 3.82403 16.9843 3.5 17.1854 3.5C17.3866 3.5 17.7106 3.80169 17.7553 4.02516C17.8447 4.46093 17.7776 4.93022 17.7776 5.38833Z" fill="#417837"/>
<path d="M20.9175 7.28784C21.1633 6.40513 21.3532 5.60063 21.6214 4.84083C21.6773 4.67323 22.0795 4.52797 22.2918 4.56149C22.4371 4.58384 22.6606 4.95257 22.627 5.12017C22.4818 5.87997 22.2918 6.6286 22.0348 7.35488C21.9678 7.54483 21.6214 7.74596 21.4091 7.74596C21.2527 7.75713 21.0851 7.45544 20.9175 7.28784Z" fill="#417837"/>
<path d="M9.50921 9.00862C9.30809 9.33266 9.2187 9.64552 9.07344 9.66786C8.87232 9.70138 8.53711 9.58965 8.42538 9.42204C7.96726 8.79632 7.55384 8.14826 7.18511 7.46667C7.09572 7.29907 7.16276 6.94151 7.29685 6.77391C7.39741 6.651 7.84435 6.60631 7.91139 6.6957C8.47007 7.44432 8.97288 8.22647 9.50921 9.00862Z" fill="#417837"/>
<path d="M24.884 8.96367C25.4092 8.20387 25.9008 7.44406 26.4483 6.71778C26.5265 6.61722 26.9623 6.62839 27.0629 6.7513C27.197 6.90773 27.2864 7.27646 27.197 7.44406C26.8282 8.13682 26.4036 8.80724 25.9455 9.44413C25.8338 9.60056 25.4762 9.73464 25.2975 9.6676C25.1299 9.61174 25.0516 9.2877 24.884 8.96367Z" fill="#417837"/>
<path d="M13.4311 7.25429C13.2859 7.43307 13.163 7.72358 13.0065 7.74593C12.8054 7.77945 12.4255 7.63419 12.3808 7.47776C12.1127 6.66209 11.9115 5.83525 11.7328 4.99724C11.7104 4.86315 11.9562 4.55029 12.0568 4.55029C12.3026 4.56147 12.6825 4.6732 12.7384 4.84081C13.0177 5.60061 13.1965 6.39393 13.4311 7.25429Z" fill="#417837"/>
<path d="M6.06773 11.9249C6.09008 12.3383 5.58727 12.6958 5.26324 12.4612C4.61517 11.9807 4.0118 11.422 3.44195 10.8522C3.35256 10.7628 3.40843 10.3717 3.53134 10.2376C3.65425 10.1036 4.03415 9.98066 4.13471 10.0589C4.79395 10.5952 5.40849 11.1874 6.03421 11.7573C6.05656 11.8019 6.05656 11.8913 6.06773 11.9249Z" fill="#417837"/>
<path d="M31.0184 10.4723C31.0184 11.0086 29.2418 12.6288 28.8507 12.5282C28.6496 12.4724 28.4149 12.2936 28.3367 12.1148C28.2808 11.9807 28.4037 11.7014 28.5378 11.5673C28.9848 11.1092 29.4541 10.6734 29.9457 10.2712C30.1245 10.1259 30.415 10.0253 30.6273 10.07C30.8061 10.1036 30.929 10.3717 31.0184 10.4723Z" fill="#417837"/>
<path d="M3.0956 16.4388C2.39167 16.0924 1.68773 15.7684 1.01732 15.3997C0.916757 15.3438 0.849715 14.9751 0.916757 14.8969C1.07319 14.7293 1.37487 14.517 1.54248 14.5728C2.19054 14.7851 2.82744 15.0645 3.44198 15.3773C3.58724 15.4556 3.72132 15.8019 3.67663 15.9695C3.63193 16.1371 3.35259 16.2377 3.0956 16.4388Z" fill="#417837"/>
<path d="M31.2418 16.4278C31.0072 16.2379 30.7278 16.1261 30.6831 15.9585C30.6385 15.7909 30.7614 15.4446 30.9066 15.3663C31.5212 15.0535 32.1469 14.7741 32.8061 14.573C32.9737 14.5171 33.2978 14.763 33.443 14.9529C33.4989 15.0311 33.3313 15.4222 33.1749 15.5004C32.5715 15.8356 31.9234 16.115 31.2418 16.4278Z" fill="#417837"/>
<path d="M33.0854 21.0314C32.8284 21.0314 32.5379 21.0985 32.3144 21.0091C32.0686 20.9197 31.8787 20.685 31.6664 20.5174C31.8563 20.3051 32.0239 19.9476 32.2251 19.9141C32.7949 19.847 33.3871 19.8805 33.9458 19.9699C34.1246 20.0034 34.348 20.3498 34.3592 20.5621C34.3592 20.7074 34.0575 20.9309 33.8452 20.9979C33.6218 21.0873 33.3424 21.0202 33.0854 21.0314Z" fill="#417837"/>
<path d="M1.29663 21.0536C0.994947 21.0313 0.682087 21.0648 0.402748 20.9866C0.235144 20.9419 0.000499391 20.7296 0.000499391 20.5843C-0.0106742 20.3944 0.168103 20.0368 0.291012 20.0257C0.961426 19.9586 1.64301 19.9475 2.31343 19.9921C2.45868 20.0033 2.67098 20.3609 2.68216 20.562C2.68216 20.6961 2.40282 20.9196 2.21287 20.9754C1.91118 21.0648 1.58715 21.0313 1.29663 21.0536Z" fill="#417837"/>
<path d="M31.7447 24.0259C32.3369 24.2158 32.8285 24.3164 33.2643 24.5287C33.4319 24.6181 33.6107 24.9645 33.566 25.1432C33.5213 25.322 33.1973 25.5678 33.0185 25.5567C32.471 25.4896 31.9123 25.3555 31.3983 25.1656C31.2307 25.0985 31.0184 24.674 31.0854 24.5622C31.2084 24.3276 31.5212 24.1935 31.7447 24.0259Z" fill="#417837"/>
<path d="M2.65987 24.0371C2.87217 24.2047 3.25207 24.35 3.26324 24.5287C3.28559 24.7522 3.05094 25.1098 2.83865 25.1992C2.36936 25.4003 1.85537 25.512 1.35256 25.5567C1.17378 25.5791 0.84975 25.3332 0.805056 25.1545C0.760362 24.9757 0.927965 24.6181 1.09557 24.5399C1.55369 24.3276 2.0565 24.2159 2.65987 24.0371Z" fill="#417837"/>
<path d="M4.92813 28.2943C4.72701 28.5625 4.63762 28.7748 4.48119 28.8754C4.19068 29.0541 3.87782 29.2553 3.55378 29.3C3.30797 29.3335 2.96159 29.1994 2.81633 29.0206C2.72694 28.8977 2.83868 28.4284 2.99511 28.339C3.38618 28.0932 3.83312 27.9256 4.28007 27.8474C4.44767 27.8139 4.67114 28.1044 4.92813 28.2943Z" fill="#417837"/>
<path d="M31.0518 29.4673C30.549 29.2103 30.1133 29.0316 29.7334 28.7522C29.6105 28.6628 29.5881 28.3165 29.644 28.1153C29.6775 27.9813 29.968 27.7913 30.0797 27.836C30.5379 27.9701 31.0071 28.1489 31.4206 28.3947C31.5546 28.4729 31.644 28.8416 31.5882 28.998C31.5211 29.188 31.253 29.2997 31.0518 29.4673Z" fill="#417837"/>
<path d="M28.3367 31.0317C29.0853 31.0653 29.6775 31.4899 29.5658 31.8698C29.4987 32.1044 29.2194 32.3726 28.9847 32.4284C28.5825 32.529 27.8227 31.8251 27.9233 31.501C28.0015 31.2887 28.2473 31.1323 28.3367 31.0317Z" fill="#417837"/>
<path d="M6.45879 31.367C6.46996 31.881 5.81072 32.4955 5.40847 32.4061C5.17383 32.3503 4.87214 32.0598 4.8051 31.8139C4.71571 31.4787 5.40847 30.9871 5.90011 31.0429C6.12358 31.0765 6.3247 31.2888 6.45879 31.367Z" fill="#417837"/>
</svg>
