<svg width="32" height="32" viewBox="0 0 32 32" fill="none" xmlns="http://www.w3.org/2000/svg">
<rect x="0.5" y="0.5" width="31" height="31" rx="15.5" fill="#FEF2F2"/>
<path fill-rule="evenodd" clip-rule="evenodd" d="M10.3999 21.6C10.3999 21.3878 10.4842 21.1843 10.6342 21.0343C10.7842 20.8843 10.9877 20.8 11.1999 20.8H20.7999C21.0121 20.8 21.2156 20.8843 21.3656 21.0343C21.5156 21.1843 21.5999 21.3878 21.5999 21.6C21.5999 21.8122 21.5156 22.0157 21.3656 22.1657C21.2156 22.3157 21.0121 22.4 20.7999 22.4H11.1999C10.9877 22.4 10.7842 22.3157 10.6342 22.1657C10.4842 22.0157 10.3999 21.8122 10.3999 21.6ZM13.0343 15.4344C13.1843 15.2844 13.3878 15.2002 13.5999 15.2002C13.812 15.2002 14.0155 15.2844 14.1655 15.4344L15.1999 16.4688V10.4C15.1999 10.1878 15.2842 9.98435 15.4342 9.83432C15.5842 9.68429 15.7877 9.60001 15.9999 9.60001C16.2121 9.60001 16.4156 9.68429 16.5656 9.83432C16.7156 9.98435 16.7999 10.1878 16.7999 10.4V16.4688L17.8343 15.4344C17.9081 15.358 17.9964 15.2971 18.094 15.2551C18.1916 15.2132 18.2966 15.1911 18.4028 15.1902C18.509 15.1893 18.6143 15.2095 18.7127 15.2497C18.811 15.29 18.9003 15.3494 18.9754 15.4245C19.0505 15.4996 19.1099 15.5889 19.1502 15.6872C19.1904 15.7856 19.2106 15.8909 19.2097 15.9971C19.2088 16.1033 19.1867 16.2083 19.1448 16.3059C19.1029 16.4035 19.0419 16.4918 18.9655 16.5656L16.5655 18.9656C16.4155 19.1156 16.212 19.1998 15.9999 19.1998C15.7878 19.1998 15.5843 19.1156 15.4343 18.9656L13.0343 16.5656C12.8843 16.4156 12.8001 16.2121 12.8001 16C12.8001 15.7879 12.8843 15.5844 13.0343 15.4344Z" fill="#DC2626"/>
<rect x="0.5" y="0.5" width="31" height="31" rx="15.5" stroke="#F87171"/>
</svg>
