<svg width="597" height="484" viewBox="0 0 597 484" fill="none" xmlns="http://www.w3.org/2000/svg">
<path d="M148.87 102.508C109.411 138.443 65.7454 173.512 61.416 213.034C57.0866 252.556 92.093 296.346 131.491 326.839C170.888 357.331 214.739 374.463 273.681 389.555C332.623 404.708 406.595 417.696 450.198 387.266C493.801 356.836 507.037 282.801 489.287 226.518C471.66 170.048 422.985 131.516 379.381 95.5807C335.778 59.6458 297.184 26.556 260.198 28.2259C223.336 29.9577 188.268 66.573 148.87 102.508Z" fill="#F7F7F7"/>
<path d="M252.282 205.489C252.591 205.489 252.838 205.365 253.024 205.117C253.209 204.87 253.271 204.499 253.148 204.19L179.98 0.64081C179.857 0.331559 179.609 0.0841583 179.3 0.0223081C178.991 -0.0395421 178.682 0.0223081 178.434 0.269709L0.247513 181.305C0.000106812 181.553 -0.0617218 181.924 0.0619659 182.295C0.185669 182.666 0.494904 182.851 0.865997 182.913L252.158 205.489C252.22 205.489 252.22 205.489 252.282 205.489ZM178.743 2.68187L250.859 203.447L3.0307 181.181L178.743 2.68187Z" fill="#E5E5E5"/>
<path d="M49.0461 82.7778H454.156V305.562H49.0461V82.7778Z" fill="#FEFDDB"/>
<path d="M437.519 88.9011L446.796 104.92H428.304L437.519 88.9011Z" fill="#9EF5EE"/>
<path d="M414.202 105.168C409.317 105.168 405.357 101.208 405.357 96.3231C405.357 91.4384 409.317 87.4785 414.202 87.4785C419.086 87.4785 423.046 91.4384 423.046 96.3231C423.046 101.208 419.086 105.168 414.202 105.168Z" fill="#FE697D"/>
<path d="M380.432 88.1589H397.193V104.92H380.432V88.1589Z" fill="#8CE08C"/>
<path d="M49.046 112.652H472.649C473.144 112.652 473.577 112.219 473.577 111.724C473.577 111.229 473.144 110.796 472.649 110.796H49.046C48.5512 110.796 48.1183 111.229 48.1183 111.724C48.1183 112.219 48.5512 112.652 49.046 112.652Z" fill="#E5E5E5"/>
<path d="M47.4382 393.08C48.0567 393.08 48.6133 392.586 48.6751 391.967C48.9844 388.38 53.9323 375.453 62.5293 360.3C68.2813 350.156 79.847 331.849 92.6497 323.499C93.2063 323.128 93.3919 322.386 93.0208 321.767C92.6497 321.21 91.9075 321.025 91.289 321.396C68.4668 336.364 46.8815 383.246 46.1394 391.72C46.0775 392.4 46.5723 393.018 47.2526 393.08C47.3763 393.08 47.3763 393.08 47.4382 393.08Z" fill="#9EF5EE"/>
<path d="M38.9647 394.503C39.645 394.503 40.2017 393.946 40.2017 393.266C40.2017 384.545 30.3677 356.094 17.4413 341.621C17.0084 341.126 16.2043 341.064 15.7096 341.497C15.2148 341.93 15.1529 342.734 15.5858 343.229C28.3267 357.578 37.6659 385.72 37.6659 393.266C37.7277 393.946 38.2843 394.503 38.9647 394.503Z" fill="#9EF5EE"/>
<path d="M453.723 368.773C453.723 333.766 384.638 278.101 365.774 278.101C345.302 278.101 253.395 379.844 253.395 389.122C253.395 398.399 290.751 389.617 293.102 386.524C295.452 383.432 352.724 352.074 356.559 352.074C360.393 352.074 375.608 370.505 376.721 373.907C377.896 377.308 453.723 368.773 453.723 368.773Z" fill="#777777"/>
<path d="M204.41 404.337C204.41 395.678 203.359 374.154 180.351 360.609C180.351 374.773 180.351 423.016 180.351 423.016H204.41V404.337Z" fill="#C2C2C2"/>
<path fill-rule="evenodd" clip-rule="evenodd" d="M473.391 228.559C473.391 219.219 465.784 211.612 456.445 211.612C447.106 211.612 439.498 219.219 439.498 228.559C439.498 237.898 447.044 245.568 456.445 245.568C465.846 245.568 473.391 237.96 473.391 228.559Z" fill="#8CE08C"/>
<path fill-rule="evenodd" clip-rule="evenodd" d="M575.565 467.053C575.565 457.714 567.958 450.106 558.619 450.106C549.28 450.106 541.672 457.714 541.672 467.053C541.672 476.392 549.28 484 558.619 484C567.958 484 575.565 476.392 575.565 467.053Z" fill="#8CE08C"/>
<path fill-rule="evenodd" clip-rule="evenodd" d="M542.291 234.744C545.383 222.188 558 214.519 570.556 217.611C583.111 220.704 590.78 233.321 587.688 245.877C584.595 258.432 571.978 266.102 559.423 263.009C546.868 259.917 539.198 247.238 542.291 234.744Z" fill="#8CE08C"/>
<path d="M551.63 236.661C552.929 236.661 554.228 235.115 554.784 232.827C555.032 231.775 555.094 230.662 554.908 229.796C554.599 228.311 553.795 227.879 553.362 227.755C552.929 227.631 552.001 227.631 551.073 228.806C550.517 229.487 550.084 230.476 549.775 231.528C549.156 234.064 549.775 236.166 551.197 236.538C551.383 236.661 551.506 236.661 551.63 236.661ZM552.991 229.548C553.176 229.672 553.547 230.724 553.114 232.455C552.681 234.125 551.877 234.929 551.63 234.929C551.444 234.806 551.073 233.754 551.506 232.022C551.939 230.353 552.743 229.548 552.991 229.548Z" fill="#2B7C63"/>
<path d="M575.689 213.158C578.472 214.457 581.75 213.282 583.111 210.561L596.47 182.728C597.769 179.945 596.594 176.667 593.873 175.306C591.09 174.007 587.812 175.182 586.451 177.904L573.092 205.736C571.731 208.458 572.906 211.798 575.689 213.158Z" fill="#2B7C63"/>
<path d="M582.554 192.933C583.049 193.181 583.668 192.933 583.853 192.438L588.616 182.542C588.863 182.048 588.616 181.429 588.121 181.244C587.626 180.996 587.008 181.244 586.822 181.738L582.06 191.634C581.874 192.067 582.06 192.686 582.554 192.933Z" fill="white"/>
<path fill-rule="evenodd" clip-rule="evenodd" d="M97.1027 345.022L104.586 355.104L109.596 343.6L114.606 332.096L102.113 333.518L89.619 334.941L97.1027 345.022Z" fill="#9EF5EE"/>
<path fill-rule="evenodd" clip-rule="evenodd" d="M72.2394 307.108L65.9308 317.994H78.4862H91.0415L84.7948 307.108L78.548 296.223L72.2394 307.108Z" fill="#9EF5EE"/>
<path d="M558.99 273.091C507.965 253.855 468.443 349.228 473.02 359.928C477.597 370.628 528.808 395.554 535.673 392.4C549.836 385.905 590.347 284.842 558.99 273.091Z" fill="#FE697D"/>
<path d="M19.9772 387.328H78.1152V399.389H19.9772V387.328Z" fill="#C2C2C2"/>
<path d="M27.7702 399.389H70.384V438.602H27.7702V399.389Z" fill="#777777"/>
<path d="M25.0488 341.188C20.8474 341.188 17.4414 337.782 17.4414 333.58C17.4414 329.379 20.8474 325.973 25.0488 325.973C29.2503 325.973 32.6562 329.379 32.6562 333.58C32.6562 337.782 29.2503 341.188 25.0488 341.188Z" fill="#9EF5EE"/>
<path d="M53.9321 352.012C46.9639 352.012 41.3149 346.363 41.3149 339.394C41.3149 332.426 46.9639 326.777 53.9321 326.777C60.9004 326.777 66.5493 332.426 66.5493 339.394C66.5493 346.363 60.9004 352.012 53.9321 352.012Z" fill="#9EF5EE"/>
<path d="M9.77195 369.577C5.5705 369.577 2.16455 366.171 2.16455 361.969C2.16455 357.768 5.5705 354.362 9.77195 354.362C13.9734 354.362 17.3794 357.768 17.3794 361.969C17.3794 366.171 13.9734 369.577 9.77195 369.577Z" fill="#9EF5EE"/>
<path d="M318.212 245.444C343.694 245.444 364.414 224.724 364.414 199.242C364.414 173.759 343.694 153.04 318.212 153.04C292.731 153.04 272.011 173.759 272.011 199.242C272.011 224.724 292.731 245.444 318.212 245.444ZM318.212 156.318C341.901 156.318 361.197 175.615 361.197 199.303C361.197 222.992 341.901 242.289 318.212 242.289C294.524 242.289 275.228 222.992 275.228 199.303C275.228 175.615 294.524 156.318 318.212 156.318Z" fill="#9EF5EE"/>
<path d="M233.48 254.041C233.913 254.041 234.284 253.855 234.593 253.546L297.926 190.212C298.297 189.84 298.483 189.222 298.359 188.665C298.235 188.109 297.802 187.676 297.246 187.552L210.781 164.358C210.224 164.235 209.668 164.358 209.235 164.791C208.864 165.162 208.678 165.781 208.802 166.337L231.995 252.804C232.119 253.361 232.552 253.794 233.108 253.917C233.17 253.979 233.356 254.041 233.48 254.041ZM293.72 189.964L234.284 249.402L212.513 168.255L293.72 189.964Z" fill="#9EF5EE"/>
<path d="M140.397 241.918H222.594C223.46 241.918 224.202 241.176 224.202 240.31V158.173C224.202 157.307 223.46 156.565 222.594 156.565H140.459C139.593 156.565 138.851 157.307 138.851 158.173V240.31C138.851 241.176 139.531 241.918 140.397 241.918ZM220.986 238.702H142.005V159.719H220.986V238.702Z" fill="#9EF5EE"/>
<path d="M566.597 328.138C566.845 328.138 567.154 328.076 567.401 327.89C568.144 327.457 568.391 326.468 567.958 325.725L535.673 271.359C535.24 270.617 534.25 270.369 533.508 270.802C532.766 271.235 532.519 272.225 532.952 272.967L565.237 327.333C565.484 327.89 566.041 328.138 566.597 328.138Z" fill="#9EF5EE"/>
<path d="M552.187 369.144C552.434 369.144 552.743 369.083 552.991 368.897C553.733 368.464 553.98 367.474 553.547 366.732L508.027 290.038C507.594 289.296 506.604 289.048 505.862 289.481C505.12 289.914 504.872 290.904 505.305 291.646L550.826 368.34C551.074 368.897 551.63 369.144 552.187 369.144Z" fill="#9EF5EE"/>
<path d="M528.746 393.327C528.994 393.327 529.303 393.266 529.55 393.08C530.292 392.647 530.54 391.658 530.107 390.915L487.493 319.169C487.06 318.427 486.07 318.179 485.328 318.612C484.586 319.045 484.339 320.035 484.772 320.777L527.385 392.523C527.695 393.08 528.251 393.327 528.746 393.327Z" fill="#9EF5EE"/>
<path d="M508.707 311.5C510.191 311.5 511.614 310.881 512.603 309.644C519.53 301.047 526.705 294.491 533.879 290.285C536.291 288.863 537.095 285.832 535.673 283.42C534.25 281.008 531.22 280.204 528.808 281.626C520.52 286.512 512.418 293.811 504.749 303.397C503.017 305.562 503.388 308.716 505.553 310.448C506.48 311.129 507.594 311.5 508.707 311.5Z" fill="white"/>
<path d="M427.066 320.53C442.096 336.549 453.723 354.424 453.723 368.773C453.723 368.773 377.896 377.308 376.721 373.907C375.67 370.814 362.929 355.228 357.796 352.507C374.866 341.745 404.43 328.323 427.066 320.53Z" fill="#383838"/>
<path d="M520.211 409.285C513.16 407.739 467.268 380.153 454.094 367.165C422.984 355.475 347.591 374.896 330.397 376.628C313.203 378.36 200.576 398.214 200.576 398.214C194.824 402.296 199.834 420.48 204.472 423.82C210.41 423.82 515.139 423.82 515.139 423.82C515.139 423.82 522.87 416.398 520.211 409.285Z" fill="#C2C2C2"/>
</svg>
