<svg width="14" height="14" viewBox="0 0 14 14" fill="none" xmlns="http://www.w3.org/2000/svg">
<path d="M0.601563 7.4001C0.601562 7.24251 0.632601 7.08647 0.692907 6.94088C0.753213 6.79529 0.841604 6.663 0.953034 6.55157C1.06446 6.44014 1.19675 6.35175 1.34234 6.29144C1.48793 6.23114 1.64398 6.2001 1.80156 6.2001C1.95915 6.2001 2.11519 6.23114 2.26078 6.29144C2.40637 6.35175 2.53866 6.44014 2.65009 6.55157C2.76152 6.663 2.84991 6.79529 2.91022 6.94088C2.97052 7.08647 3.00156 7.24251 3.00156 7.4001V12.2001C3.00156 12.5184 2.87513 12.8236 2.65009 13.0486C2.42505 13.2737 2.11982 13.4001 1.80156 13.4001C1.4833 13.4001 1.17808 13.2737 0.953034 13.0486C0.727991 12.8236 0.601563 12.5184 0.601563 12.2001V7.4001ZM3.80156 7.2665V11.6105C3.80142 11.9078 3.88414 12.1993 4.04043 12.4523C4.19671 12.7052 4.42039 12.9096 4.68636 13.0425L4.72636 13.0625C5.17027 13.2844 5.6597 13.3999 6.15596 13.4001H10.4888C10.8588 13.4002 11.2174 13.2721 11.5036 13.0376C11.7898 12.803 11.9858 12.4765 12.0584 12.1137L13.0184 7.3137C13.0648 7.08159 13.0591 6.84209 13.0017 6.61245C12.9444 6.38281 12.8368 6.16875 12.6867 5.98571C12.5367 5.80266 12.3479 5.65519 12.1339 5.55393C11.92 5.45266 11.6863 5.40012 11.4496 5.4001H8.60156V2.2001C8.60156 1.77575 8.43299 1.36878 8.13293 1.06873C7.83287 0.768669 7.42591 0.600098 7.00156 0.600098C6.78939 0.600098 6.58591 0.684383 6.43588 0.834412C6.28585 0.984441 6.20156 1.18792 6.20156 1.4001V1.9337C6.20156 2.62608 5.97699 3.29979 5.56156 3.8537L4.44156 5.3465C4.02613 5.9004 3.80156 6.57411 3.80156 7.2665Z" fill="#6B7280"/>
</svg>
