<svg width="32" height="32" viewBox="0 0 32 32" fill="none" xmlns="http://www.w3.org/2000/svg">
<rect x="0.5" y="0.5" width="31" height="31" rx="15.5" fill="#ECFDF5"/>
<path fill-rule="evenodd" clip-rule="evenodd" d="M10.3999 10.8C10.3999 10.5878 10.4842 10.3843 10.6342 10.2343C10.7842 10.0843 10.9877 10 11.1999 10H20.7999C21.0121 10 21.2156 10.0843 21.3656 10.2343C21.5156 10.3843 21.5999 10.5878 21.5999 10.8C21.5999 11.0122 21.5156 11.2157 21.3656 11.3657C21.2156 11.5157 21.0121 11.6 20.7999 11.6H11.1999C10.9877 11.6 10.7842 11.5157 10.6342 11.3657C10.4842 11.2157 10.3999 11.0122 10.3999 10.8ZM12.8003 16.1998C12.8003 16.412 12.8845 16.6154 13.0345 16.7654C13.1845 16.9154 13.388 16.9997 13.6001 16.9997C13.8123 16.9997 14.0157 16.9154 14.1657 16.7654L15.2001 15.731V21.7998C15.2001 22.012 15.2844 22.2155 15.4344 22.3655C15.5845 22.5155 15.7879 22.5998 16.0001 22.5998C16.2123 22.5998 16.4158 22.5155 16.5658 22.3655C16.7158 22.2155 16.8001 22.012 16.8001 21.7998V15.731L17.8345 16.7654C17.9854 16.9112 18.1875 16.9918 18.3972 16.99C18.607 16.9881 18.8077 16.904 18.956 16.7557C19.1043 16.6074 19.1884 16.4067 19.1903 16.1969C19.1921 15.9872 19.1114 15.7851 18.9657 15.6342L16.5657 13.2342C16.4157 13.0843 16.2123 13 16.0001 13C15.788 13 15.5845 13.0843 15.4345 13.2342L13.0345 15.6342C12.8845 15.7843 12.8003 15.9877 12.8003 16.1998Z" fill="#059669"/>
<rect x="0.5" y="0.5" width="31" height="31" rx="15.5" stroke="#34D399"/>
</svg>
