<svg width="14" height="14" viewBox="0 0 14 14" fill="none" xmlns="http://www.w3.org/2000/svg">
<path fill-rule="evenodd" clip-rule="evenodd" d="M13.4001 7.0001C13.4001 8.69748 12.7258 10.3253 11.5256 11.5256C10.3253 12.7258 8.69748 13.4001 7.0001 13.4001C5.30271 13.4001 3.67485 12.7258 2.47461 11.5256C1.27438 10.3253 0.600098 8.69748 0.600098 7.0001C0.600098 5.30271 1.27438 3.67485 2.47461 2.47461C3.67485 1.27438 5.30271 0.600098 7.0001 0.600098C8.69748 0.600098 10.3253 1.27438 11.5256 2.47461C12.7258 3.67485 13.4001 5.30271 13.4001 7.0001ZM7.8001 3.8001C7.8001 4.01227 7.71581 4.21575 7.56578 4.36578C7.41575 4.51581 7.21227 4.6001 7.0001 4.6001C6.78792 4.6001 6.58444 4.51581 6.43441 4.36578C6.28438 4.21575 6.2001 4.01227 6.2001 3.8001C6.2001 3.58792 6.28438 3.38444 6.43441 3.23441C6.58444 3.08438 6.78792 3.0001 7.0001 3.0001C7.21227 3.0001 7.41575 3.08438 7.56578 3.23441C7.71581 3.38444 7.8001 3.58792 7.8001 3.8001ZM6.2001 6.2001C5.98792 6.2001 5.78444 6.28438 5.63441 6.43441C5.48438 6.58444 5.4001 6.78792 5.4001 7.0001C5.4001 7.21227 5.48438 7.41575 5.63441 7.56578C5.78444 7.71581 5.98792 7.8001 6.2001 7.8001V10.2001C6.2001 10.4123 6.28438 10.6158 6.43441 10.7658C6.58444 10.9158 6.78792 11.0001 7.0001 11.0001H7.8001C8.01227 11.0001 8.21575 10.9158 8.36578 10.7658C8.51581 10.6158 8.6001 10.4123 8.6001 10.2001C8.6001 9.98792 8.51581 9.78444 8.36578 9.63441C8.21575 9.48438 8.01227 9.4001 7.8001 9.4001V7.0001C7.8001 6.78792 7.71581 6.58444 7.56578 6.43441C7.41575 6.28438 7.21227 6.2001 7.0001 6.2001H6.2001Z" fill="#374151"/>
</svg>
