<svg width="16" height="10" viewBox="0 0 16 10" fill="none" xmlns="http://www.w3.org/2000/svg">
<path fill-rule="evenodd" clip-rule="evenodd" d="M5.70679 9.70701C5.51926 9.89448 5.26495 9.9998 4.99979 9.9998C4.73462 9.9998 4.48031 9.89448 4.29279 9.70701L0.292786 5.70701C0.105315 5.51948 0 5.26517 0 5.00001C0 4.73485 0.105315 4.48054 0.292786 4.29301L4.29279 0.293011C4.48139 0.110853 4.73399 0.010058 4.99619 0.0123364C5.25838 0.0146148 5.5092 0.119784 5.6946 0.305192C5.88001 0.4906 5.98518 0.741413 5.98746 1.00361C5.98974 1.26581 5.88894 1.51841 5.70679 1.70701L3.41379 4.00001H14.9998C15.265 4.00001 15.5194 4.10537 15.7069 4.2929C15.8944 4.48044 15.9998 4.73479 15.9998 5.00001C15.9998 5.26523 15.8944 5.51958 15.7069 5.70712C15.5194 5.89465 15.265 6.00001 14.9998 6.00001H3.41379L5.70679 8.29301C5.89426 8.48054 5.99957 8.73485 5.99957 9.00001C5.99957 9.26517 5.89426 9.51948 5.70679 9.70701Z" fill="#374151"/>
</svg>
