<svg width="16" height="10" viewBox="0 0 16 10" fill="none" xmlns="http://www.w3.org/2000/svg">
<path fill-rule="evenodd" clip-rule="evenodd" d="M10.293 0.293C10.4805 0.105529 10.7348 0.000213623 11 0.000213623C11.2652 0.000213623 11.5195 0.105529 11.707 0.293L15.707 4.293C15.8945 4.48053 15.9998 4.73484 15.9998 5C15.9998 5.26516 15.8945 5.51947 15.707 5.707L11.707 9.707C11.5184 9.88916 11.2658 9.98995 11.0036 9.98767C10.7414 9.9854 10.4906 9.88023 10.3052 9.69482C10.1198 9.50941 10.0146 9.2586 10.0123 8.9964C10.01 8.7342 10.1108 8.4816 10.293 8.293L12.586 6H1C0.734784 6 0.48043 5.89464 0.292893 5.70711C0.105357 5.51957 0 5.26522 0 5C0 4.73478 0.105357 4.48043 0.292893 4.29289C0.48043 4.10536 0.734784 4 1 4H12.586L10.293 1.707C10.1055 1.51947 10.0002 1.26516 10.0002 1C10.0002 0.734836 10.1055 0.480528 10.293 0.293Z" fill="#9CA3AF"/>
</svg>
