<svg width="16" height="16" viewBox="0 0 16 16" fill="none" xmlns="http://www.w3.org/2000/svg">
<path d="M1.33398 1.33335V5.50002H1.81898M1.81898 5.50002C2.37219 4.13179 3.36372 2.98578 4.63818 2.24157C5.91263 1.49737 7.39799 1.19703 8.86146 1.38764C10.3249 1.57824 11.6838 2.24902 12.7251 3.29483C13.7664 4.34065 14.4314 5.70241 14.6156 7.16669M1.81898 5.50002H5.50065M14.6673 14.6667V10.5H14.1832M14.1832 10.5C13.6291 11.8674 12.6373 13.0126 11.363 13.7561C10.0887 14.4996 8.60377 14.7996 7.14073 14.6091C5.6777 14.4185 4.31915 13.7482 3.27776 12.7031C2.23638 11.658 1.57095 10.2971 1.38565 8.83335M14.1832 10.5H10.5007" stroke="#6B7280" stroke-width="2" stroke-linecap="round" stroke-linejoin="round"/>
</svg>
