<svg width="14" height="17" viewBox="0 0 14 17" fill="none" xmlns="http://www.w3.org/2000/svg">
<path d="M4.49935 8.5H9.49935M4.49935 11.8333H9.49935M11.166 16H2.83268C2.39065 16 1.96673 15.8244 1.65417 15.5118C1.34161 15.1993 1.16602 14.7754 1.16602 14.3333V2.66667C1.16602 2.22464 1.34161 1.80072 1.65417 1.48816C1.96673 1.17559 2.39065 1 2.83268 1H7.48768C7.70868 1.00005 7.92061 1.08788 8.07685 1.24417L12.5885 5.75583C12.7448 5.91208 12.8326 6.124 12.8327 6.345V14.3333C12.8327 14.7754 12.6571 15.1993 12.3445 15.5118C12.032 15.8244 11.608 16 11.166 16Z" stroke="#417837" stroke-width="2" stroke-linecap="round" stroke-linejoin="round"/>
</svg>
