<svg width="18" height="17" viewBox="0 0 18 17" fill="none" xmlns="http://www.w3.org/2000/svg">
<path d="M13.1667 4.16671H14.8333C15.2754 4.16671 15.6993 4.3423 16.0118 4.65486C16.3244 4.96742 16.5 5.39135 16.5 5.83337V10.8334C16.5 11.2754 16.3244 11.6993 16.0118 12.0119C15.6993 12.3244 15.2754 12.5 14.8333 12.5H13.1667V15.8334L9.83333 12.5H6.5C6.28111 12.5003 6.06433 12.4572 5.86211 12.3734C5.6599 12.2896 5.47623 12.1667 5.32167 12.0117M5.32167 12.0117L8.16667 9.16671H11.5C11.942 9.16671 12.366 8.99111 12.6785 8.67855C12.9911 8.36599 13.1667 7.94207 13.1667 7.50004V2.50004C13.1667 2.05801 12.9911 1.63409 12.6785 1.32153C12.366 1.00897 11.942 0.833374 11.5 0.833374H3.16667C2.72464 0.833374 2.30072 1.00897 1.98816 1.32153C1.67559 1.63409 1.5 2.05801 1.5 2.50004V7.50004C1.5 7.94207 1.67559 8.36599 1.98816 8.67855C2.30072 8.99111 2.72464 9.16671 3.16667 9.16671H4.83333V12.5L5.32167 12.0117Z" stroke="#417837" stroke-width="1.5" stroke-linecap="round" stroke-linejoin="round"/>
</svg>
