<svg width="14" height="17" viewBox="0 0 14 17" fill="none" xmlns="http://www.w3.org/2000/svg">
<path d="M1.25 3.601V5.43739L2.53557 4.12604C3.27849 3.36822 4.20208 2.81198 5.21936 2.50972C6.23664 2.20745 7.31412 2.16911 8.35031 2.39831C9.38649 2.6275 10.3473 3.11668 11.1422 3.81978C11.9371 4.52287 12.5399 5.41674 12.894 6.41719L12.8974 6.42705L12.9012 6.43681C12.9132 6.468 12.9189 6.50128 12.9178 6.53469C12.9168 6.56811 12.909 6.60097 12.895 6.63133C12.881 6.66169 12.8611 6.68894 12.8364 6.71146C12.8117 6.73399 12.7828 6.75133 12.7512 6.76247C12.7197 6.7736 12.6863 6.77831 12.6529 6.7763C12.6196 6.77429 12.5869 6.7656 12.557 6.75077C12.527 6.73593 12.5003 6.71523 12.4785 6.6899C12.4567 6.66457 12.4402 6.63513 12.43 6.60331L12.4267 6.59303L12.423 6.58284C12.0759 5.60173 11.4691 4.73318 10.6673 4.06973C9.86548 3.40629 8.89868 2.97282 7.86993 2.8155C6.84118 2.65818 5.78903 2.78292 4.82558 3.17642C3.86213 3.56992 3.02349 4.21743 2.39902 5.04997L1.49891 6.25H2.999H6C6.0663 6.25 6.12989 6.27634 6.17678 6.32322C6.22366 6.37011 6.25 6.4337 6.25 6.5C6.25 6.5663 6.22366 6.62989 6.17678 6.67678C6.12989 6.72366 6.0663 6.75 6 6.75H1C0.933696 6.75 0.870108 6.72366 0.823223 6.67678C0.776339 6.62989 0.75 6.5663 0.75 6.5V1.5C0.75 1.4337 0.776339 1.37011 0.823223 1.32322C0.870107 1.27634 0.933696 1.25 1 1.25C1.0663 1.25 1.12989 1.27634 1.17678 1.32322C1.22366 1.37011 1.25 1.4337 1.25 1.5V3.601ZM2.85781 13.1802C2.06301 12.4772 1.46021 11.5835 1.10618 10.5832C1.09525 10.5523 1.09052 10.5195 1.09227 10.4867C1.09401 10.4539 1.1022 10.4218 1.11636 10.3921C1.13052 10.3625 1.15038 10.336 1.1748 10.314C1.19922 10.2921 1.22773 10.2751 1.25868 10.2642L1.25863 10.2639C1.28934 10.2532 1.32185 10.2485 1.35434 10.2503C1.38713 10.252 1.41925 10.2602 1.44887 10.2744C1.47849 10.2885 1.50503 10.3084 1.52698 10.3328C1.54893 10.3572 1.56585 10.3857 1.57678 10.4167L1.57695 10.4172C1.92408 11.3983 2.53088 12.2668 3.3327 12.9303C4.13452 13.5937 5.10132 14.0272 6.13007 14.1845C7.15881 14.3418 8.21097 14.2171 9.17442 13.8236C10.1379 13.4301 10.9765 12.7826 11.601 11.95L12.5011 10.75H11.001H8C7.9337 10.75 7.87011 10.7237 7.82322 10.6768C7.77634 10.6299 7.75 10.5663 7.75 10.5C7.75 10.4337 7.77634 10.3701 7.82322 10.3232C7.87011 10.2763 7.9337 10.25 8 10.25H13C13.0663 10.25 13.1299 10.2763 13.1768 10.3232C13.2237 10.3701 13.25 10.4337 13.25 10.5V15.5C13.25 15.5663 13.2237 15.6299 13.1768 15.6768C13.1299 15.7237 13.0663 15.75 13 15.75C12.9337 15.75 12.8701 15.7237 12.8232 15.6768C12.7763 15.6299 12.75 15.5663 12.75 15.5V13.399V11.5626L11.4644 12.874C10.7215 13.6318 9.79792 14.188 8.78064 14.4903C7.76336 14.7925 6.68588 14.8309 5.64969 14.6017C4.6135 14.3725 3.65271 13.8833 2.85781 13.1802Z" stroke="#417837" stroke-width="1.5"/>
</svg>
