<svg width="18" height="15" viewBox="0 0 18 15" fill="none" xmlns="http://www.w3.org/2000/svg">
<path d="M4.83333 4.16671H13.1667M4.83333 7.50004H8.16667M9 14.1667L5.66667 10.8334H3.16667C2.72464 10.8334 2.30072 10.6578 1.98816 10.3452C1.67559 10.0327 1.5 9.60873 1.5 9.16671V2.50004C1.5 2.05801 1.67559 1.63409 1.98816 1.32153C2.30072 1.00897 2.72464 0.833374 3.16667 0.833374H14.8333C15.2754 0.833374 15.6993 1.00897 16.0118 1.32153C16.3244 1.63409 16.5 2.05801 16.5 2.50004V9.16671C16.5 9.60873 16.3244 10.0327 16.0118 10.3452C15.6993 10.6578 15.2754 10.8334 14.8333 10.8334H12.3333L9 14.1667Z" stroke="#417837" stroke-width="1.5" stroke-linecap="round" stroke-linejoin="round"/>
</svg>
