<svg width="16" height="16" viewBox="0 0 16 16" fill="none" xmlns="http://www.w3.org/2000/svg">
<path d="M4.66683 1.83333H3.00016C2.55814 1.83333 2.13421 2.00893 1.82165 2.32149C1.50909 2.63405 1.3335 3.05797 1.3335 3.5V13.5C1.3335 13.942 1.50909 14.366 1.82165 14.6785C2.13421 14.9911 2.55814 15.1667 3.00016 15.1667H13.0002C13.4422 15.1667 13.8661 14.9911 14.1787 14.6785C14.4912 14.366 14.6668 13.942 14.6668 13.5V3.5C14.6668 3.05797 14.4912 2.63405 14.1787 2.32149C13.8661 2.00893 13.4422 1.83333 13.0002 1.83333H11.3335M8.00016 1V7.66667M8.00016 7.66667L10.5002 5.16667M8.00016 7.66667L5.50016 5.16667M1.3335 9.33333H3.4885C3.70949 9.33338 3.92142 9.42121 4.07766 9.5775L6.08933 11.5892C6.24557 11.7455 6.4575 11.8333 6.6785 11.8333H9.32183C9.54282 11.8333 9.75475 11.7455 9.911 11.5892L11.9227 9.5775C12.0789 9.42121 12.2908 9.33338 12.5118 9.33333H14.6668" stroke="#417837" stroke-width="1.5" stroke-linecap="round" stroke-linejoin="round"/>
</svg>
